<svg id="Layer_3" data-name="Layer 3" xmlns="http://www.w3.org/2000/svg" viewBox="0 0 891.28 581.11"><defs><style>.cls-1{fill:#fff;}.cls-2{fill:#fdfdfe;}.cls-3{fill:#3549c5;}.cls-4{fill:#213bc2;}.cls-5{fill:#3448c4;}.cls-6{fill:#364ac5;}</style></defs><title>clodinbary</title><path class="cls-1" d="M631.3,680.48S527.66,551.8,563,487.45s47.55-97.28,96.32-122.88,54.87-20.73,98.77-56.09,92.66-93.88,131.68-101.2,139-34.14,175.58-8.53,104.85,67.06,115.83,92.66,27.7,93.89,61.4,101.2,105.64,50,114.18,64.62,39,91.45,39,91.45L1366.53,635l-71.76,101.81h-627Z" transform="translate(-535.54 -165.71)"/><path class="cls-2" d="M1426.81,534.09c-2.45-.73-2.68-2.74-3.17-4.88-19.31-84-70.52-136.13-155-154.43-9-2-11.68-7.23-14.54-14.43-44.25-111.25-125.87-178.61-244.23-192.25C886.39,153.86,789.5,203.47,722.78,309.27c-4.28,6.78-8.6,10.76-16.92,12.62C620,341.05,550.38,414.9,538.14,499c-13.65,93.91,27,181.91,105.66,227.47,7.52,4.36,16.37,13.85,23.93,9,5.91-3.77,1.28-15.93,1.92-24.33.28-3.73-.53-7.61.14-11.24,3-16.19-4.3-25.72-17.11-35.6-52.56-40.56-74.1-110.65-55.49-174.48A164.36,164.36,0,0,1,736.57,373.06c12.6-1.39,19.26-6.41,24.95-18,45-91.8,138.46-143.18,239.89-132.93,96.52,9.75,179.68,80.63,206.26,175.78,7.95,28.48,7.95,28.48,38.36,29.94,81,3.9,142.79,90.88,120.57,168.82-11.12,39-37.94,63.42-71.89,82-2.23.26-3.91,1-3.61,3.75a320.59,320.59,0,0,0-.07,51.2c-.28,2.84,1,3.93,3.74,3.25,63.85-20.89,107.19-62,126.18-127.41,1.41-4.83.71-10.77,5.86-14.14" transform="translate(-535.54 -165.71)"/><path class="cls-3" d="M1291,733.56a320.59,320.59,0,0,1,.07-51.2l3.61-3.75c34-18.56,60.77-43,71.89-82C1388.82,518.69,1327,431.71,1246,427.81c-30.41-1.46-30.41-1.46-38.36-29.94-26.58-95.15-109.74-166-206.26-175.78C900,211.84,806.5,263.22,761.52,355c-5.69,11.63-12.35,16.65-24.95,18A164.36,164.36,0,0,0,597.19,489.87c-18.61,63.83,2.93,133.92,55.49,174.48,12.81,9.88,20.1,19.41,17.11,35.6-.67,3.63.14,7.51-.14,11.24-.64,8.4,4,20.56-1.92,24.33-7.56,4.83-16.41-4.66-23.93-9C565.17,680.94,524.49,592.94,538.14,499c12.24-84.13,81.83-158,167.72-177.14,8.32-1.86,12.64-5.84,16.92-12.62,66.72-105.8,163.61-155.41,287.05-141.17,118.36,13.64,200,81,244.23,192.25,2.86,7.2,5.49,12.47,14.54,14.43,84.52,18.3,135.73,70.47,155,154.43.49,2.14.72,4.15,3.17,4.88v61.17c-5.15,3.37-4.45,9.31-5.86,14.14-19,65.38-62.33,106.52-126.18,127.41Q1292.91,735.18,1291,733.56Z" transform="translate(-535.54 -165.71)"/><path class="cls-4" d="M1294.71,678.61l-3.61,3.75C1290.8,679.66,1292.48,678.87,1294.71,678.61Z" transform="translate(-535.54 -165.71)"/><path class="cls-4" d="M1291,733.56q1.88,1.62,3.74,3.25C1292,737.49,1290.75,736.4,1291,733.56Z" transform="translate(-535.54 -165.71)"/><path class="cls-5" d="M773.58,746.71l-4,0c-22.85-7.93-32.06-24.67-32-48.1.22-55.15-.52-110.32.45-165.46.27-15.13-3-22.07-18.91-19.13-1.82.34-3.84-.4-5.8-.64-.21-7,4.89-9.08,8-12.24,21.82-22.1,44.1-43.76,65.7-66.07,6-6.18,10.94-7.58,17.09-1.45q34.71,34.59,69.34,69.25c2.87,2.86,5.2,6.34,3.35,9.73-.86,1.58-5.66,1.82-8.49,1.4-12.22-1.78-13.77,4.61-13.69,14.92.41,52.47.72,105-.08,157.43-.31,20.38,4,38,18.87,52.4-.12,2.47-.24,5-.35,7.42Z" transform="translate(-535.54 -165.71)"/><path class="cls-6" d="M957.33,746.79l-4.52,0c-15.76-4-26.64-13.19-30.89-29.34.34-.33,1-.84,1-1a13.87,13.87,0,0,0-1.39-2.07c-3.8-13.17-1.91-26.67-2-40-.28-31.11,0-62.23-.13-93.34,0-10.11,3.75-22.5-14.59-21-5.32.44-7.64-5.48-2.72-10.43q35.72-36,71.54-71.83c4.35-4.37,7.43-1.81,10.74,1.49q34.17,34.09,68.46,68.06c2.75,2.73,5.14,5.65,3.78,9.84-1.67,5.16-6.31,3.43-9.53,3.16-9.58-.81-10.07,4.78-10,12,.18,42.92.39,85.84,0,128.75-.15,16.73,10,27.55,19.53,39-2.45,1.3-3.11,3.52-3.11,6.07Z" transform="translate(-535.54 -165.71)"/><path class="cls-3" d="M1137.46,746.72l-4.15,0c-18.62-6.38-30.31-18.32-31.26-38.9.38-.3,1.14-.74,1.09-.87a16.73,16.73,0,0,0-1.19-2.15q0-45.17,0-90.32c.4-.3,1.17-.75,1.13-.87a16.53,16.53,0,0,0-1.23-2.21,10.63,10.63,0,0,0-2.26-2.15c-6.08-3-16.26,2.9-18.75-5.07s7.51-11.72,12.37-16.75c19.33-20,39.38-39.33,58.83-59.23,5.35-5.47,8.76-7.38,15.2-.71,23.78,24.64,48.26,48.61,72.41,72.89a24.61,24.61,0,0,1,3,4.52c-1.3,1.45-1.9,2.77-2.61,2.82-21.83,1.66-21.83,1.64-21.83,24.57,0,17.66.83,35.37-.22,53-1.24,21,4,39,19.26,53.77l-.3,7.16Z" transform="translate(-535.54 -165.71)"/></svg>