<svg id="Layer_3" data-name="Layer 3" xmlns="http://www.w3.org/2000/svg" viewBox="0 0 624.78 548.81"><defs><style>.cls-1{fill:#05acee;}.cls-2{fill:#14aced;}.cls-3{fill:#13aced;}.cls-4{fill:#15acee;}.cls-5{fill:#11abed;}.cls-6{fill:#14acee;}.cls-7{fill:#16adee;}.cls-8{fill:#11aced;}.cls-9{fill:#c8f0fa;}.cls-10{fill:#95e3fb;}.cls-11{fill:#edf9fb;}.cls-12{fill:#c8f0f9;}.cls-13{fill:#f1fafc;}.cls-14{fill:#f2fafc;}.cls-15{fill:#f1f9fc;}.cls-16{fill:#caf1fa;}.cls-17{fill:#c9f0fa;}.cls-18{fill:#eff9fb;}.cls-19{fill:#cbf1f9;}.cls-20{fill:#fbfdfd;}</style></defs><title>cloudwithrain</title><path class="cls-1" d="M1093.29,313.07c15-16.47,32.94-26.57,54.26-30.63,49.61-9.45,94.34,18.32,108.12,66.95,17.94,63.34-31.59,113-80.44,118.31-3,.33-6,1-9,.73-13.35-1.09-23.88,4.57-33.18,13.37-8.14,7.71-14.83,16.67-22,25.24-23.25,27.81-53.39,42.19-89.09,45.65-27.5,2.66-53.32-2.75-77.14-16.87-3-1.81-3.59,0-4.8,1.75-19.19,28.17-46,43.74-79.91,43.35-37.84-.43-65.62-19.32-83.4-52.58-2.19-4.1-3.68-4.21-7.51-2.52-49.7,22-111.16-3.26-129-52.93-14.59-40.53-.19-91.46,38-115.3,9.32-5.82,18.5-11.86,27.58-18,9.57-6.5,16.55-15.31,22-25.49s10.48-20.87,19-29.18c19.58-19.19,43.5-26.49,70.3-24.73,23.57,1.54,43.74,10.72,59.19,29.15C932.15,203.26,1056.09,215.71,1093.29,313.07ZM651.6,432.69c-2.06,7.12-.76,14.26.39,21.25,8.34,50.69,62.66,73.82,102.73,60a119.63,119.63,0,0,1,16.74-5c9.91-1.89,15,.54,19.1,9.64a78.14,78.14,0,0,0,23.5,30c45.54,35.22,101.82,12.28,120.61-30.44,1.82-4.13,2.78-4.18,6.25-1.71,27.25,19.43,57.85,26.84,90.47,20.62,49.33-9.41,80.08-40.15,94.19-87.93.91-3.05,1.54-3.24,4.18-1.93a69.48,69.48,0,0,0,31.35,7.21c21.71-.17,41.31-6.8,57.66-21.47,14.35-12.87,22.74-28.85,23.7-48.38,2.25-26.2-6.43-48.54-24.7-67a65,65,0,0,0-46-19.95,37.65,37.65,0,0,0-10.06,0c-13.69.09-26.14,4.51-37.84,11.18a76.29,76.29,0,0,0-31.57,33.48c-14-52.89-46-88.15-101.24-93.84-51.94-5.35-89.93,20.05-115,65.14a1.78,1.78,0,0,1-.45-.5C856.47,275.74,803,266.85,770,286.66c-13.66,8.19-22,20.59-28.42,34.53-8,17.48-20.78,30.27-37.08,40-8.87,5.29-17.75,10.63-25.61,17.37C662.27,392.78,652.92,410.73,651.6,432.69Z" transform="translate(-634.65 -231.74)"/><path class="cls-2" d="M830.6,653.64c.4,7.25-1.05,14.3-3.17,21.1-5.09,16.36-11.07,32.4-20.1,47.09a92.49,92.49,0,0,1-6.72,9.29c-1.08,1.34-2.11,3.65-4.13,3.08s-1.6-3-1.87-4.76c-1.66-11.21-.3-22.24,2.09-33.19a265.94,265.94,0,0,1,12.78-42.42c1.69-4.19,3.71-8.23,6.88-11.49,2.38-2.46,5.16-4.13,8.92-2.84s5,4.12,5.29,7.65C830.73,649.3,830.6,651.47,830.6,653.64ZM805,717.69l0,.14c2.19-.14,2.24-2.18,2.93-3.5A213.66,213.66,0,0,0,825,670.93c2-7.42,3.23-14.95,2.36-22.65-.25-2.22-.34-4.86-3.27-5.56s-4.74.9-6.37,2.94a26.73,26.73,0,0,0-4.51,8.82c-3.52,7-5.78,14.42-7.9,21.89-3.37,11.92-6.9,23.83-7.42,36.34a57.66,57.66,0,0,0-.11,13.83c.31,3.09,1.24,1.12,2,.12a14.42,14.42,0,0,0,3.79-5.12C804.2,720.33,805.81,719.46,805,717.69Z" transform="translate(-634.65 -231.74)"/><path class="cls-3" d="M1012.32,613.06c-4.29,22.79-9.9,45-26,63a36.83,36.83,0,0,1-4.46,4c-.85.68-1.68,1.84-3,1.08s-1-2-.91-3.13c1.74-22.24,4.41-44.32,11.84-65.53a40.55,40.55,0,0,1,5.56-11.1c4.85-6.5,11.09-5.91,14.84,1.34C1011.84,606,1011.91,609.44,1012.32,613.06Zm-24.49,55.58-.05.08,1.07-1.07-.06.08c8.13-10.46,12.1-22.79,15.93-35.19,2.26-7.32,4.8-14.65,3.76-22.44-.5-3.68-.91-8.37-5.28-9.38-4.78-1.1-6.16,3.48-8,6.77-5.42,12.38-8.06,25.52-10.43,38.71a185.23,185.23,0,0,0-3.17,29.69c2.41-2.18,4.28-3.47,5.17-5.69Z" transform="translate(-634.65 -231.74)"/><path class="cls-4" d="M861.92,754.05a100.35,100.35,0,0,1,7.71-37.46c1-2.46,2.13-4.92,4.07-6.79,2.68-2.58,5.77-3.83,9.53-2.32,3.52,1.4,4.33,4.33,4.43,7.63.68,23-6.75,43.7-18.2,63.22-.56.94-1,2.31-2.43,2.22-1.78-.12-1.84-1.8-2.12-3A111.12,111.12,0,0,1,861.92,754.05Zm5.67,18.85c.25.11.57.36.74.29a1.64,1.64,0,0,0,.62-.7c10.2-17.19,15.8-35.67,15.44-55.76,0-2.41.05-5.44-3-6.23-3.35-.88-5.72.89-7,4A87.64,87.64,0,0,0,867.59,772.9Z" transform="translate(-634.65 -231.74)"/><path class="cls-5" d="M1071,676.22a107.15,107.15,0,0,1-17.2,54.42c-.84,1.29-1.31,3.58-3.4,3.07s-1.55-2.66-1.68-4.24a154.69,154.69,0,0,1,6.17-55.69,23.83,23.83,0,0,1,2.59-5.89c2-3.24,4.94-4.71,8.92-3.69s5,3.79,4.63,7.54A41.83,41.83,0,0,0,1071,676.22Zm-14.1,41.48-.1,0c8.46-14.81,10.87-31,10.93-47.74a2.25,2.25,0,0,0-1.93-2.49c-1.6-.3-3-.21-3.2,1.93-3.57,1.24-3.89,4.72-4.79,7.51a114.84,114.84,0,0,0-5.07,49.35l3.7-6.75C1056.62,718.92,1056.78,718.31,1056.93,717.7Z" transform="translate(-634.65 -231.74)"/><path class="cls-6" d="M1176.79,535.81c0,17.64-3.76,31.78-11,45-.76,1.41-1.23,3.6-3.14,3.45-2.24-.17-2.29-2.65-2.74-4.28-2.27-8.3-2.12-16.76-1.34-25.26.92-10.1,1.19-20.28,4.2-30.07a20.84,20.84,0,0,1,6.53-10.41c2.13-1.73,3.72-1.91,4.55,1.41C1175.74,523.12,1177,530.64,1176.79,535.81Zm-11.84,39,.06.08c8.93-18.23,10.78-37.16,5.92-57.51-3.69,4.2-4.85,8.6-5.51,13.2a125.94,125.94,0,0,0-3.1,44.18c.2,1,.4,2.11.62,3.25A4.31,4.31,0,0,0,1165,574.77Z" transform="translate(-634.65 -231.74)"/><path class="cls-7" d="M894.88,633.45c.39-15.63,3.06-29.72,9.92-42.82a28.23,28.23,0,0,1,3.47-5.44c4-4.64,9.94-3.58,12.37,2.09,2.1,4.93,1,9.87-.32,14.66-2.86,10.43-7.12,20.37-11.66,30.15a21.88,21.88,0,0,1-8.28,9.77c-3,1.82-5,1.77-5.19-2.42C895.1,637.12,895,634.79,894.88,633.45Zm6,3.33h0c.16,0,.39,0,.47-.14,9.76-13,13.63-28.45,17.07-43.91,1-4.33-3.3-6.74-7.75-5.23-9.26,15.1-12.94,31.55-11.91,49.14.09.57.09,1.58.31,1.63C900.17,638.53,900.62,637.7,900.9,636.78Z" transform="translate(-634.65 -231.74)"/><path class="cls-3" d="M749.27,646c.11-15.39,3.48-28.76,11.37-40.79,2.65-4,6-9.44,10.71-8.58,4.35.81,4.2,7.33,5,11.55,3.59,17.83-5.21,37.8-20.59,47.58-5.09,3.24-5.85,2.83-6.22-3.37C749.44,649.84,749.34,647.35,749.27,646Zm4.54,6.92c16.32-10,24.21-31.9,18.06-49.7-1.17-3.39-2.29-3.75-4.41-.9-2.09,1-3.2,2.93-4.31,4.73a67.29,67.29,0,0,0-10.39,35C752.72,645.58,751.3,649.45,753.81,652.87Z" transform="translate(-634.65 -231.74)"/><path class="cls-3" d="M1082.43,594.25a94.1,94.1,0,0,1,6-34.8,26.14,26.14,0,0,1,1.84-4.07c1.74-3,3.76-5.73,7.81-4.77,3.71.88,5.26,3.65,5.75,7.26,2.57,19.14-2.69,36.09-14.23,51.29-1.08,1.42-2.34,3.38-4.31,2.94-2.3-.52-1.4-3-1.81-4.69C1082.32,602.68,1082.61,597.84,1082.43,594.25Zm4,8.69c.12,1.13.23,2.26.42,4a63.9,63.9,0,0,0,12.72-25.74c1.72-7.3,3.13-14.72.82-22.16-.64-2.08-.72-5.44-4.63-4.31a5.91,5.91,0,0,0-2.8,3.33A78.45,78.45,0,0,0,1086.48,602.94Z" transform="translate(-634.65 -231.74)"/><path class="cls-8" d="M982.93,723.25c.13,15-5.47,27.82-15.11,39-.83,1-1.51,2.48-3.07,2.2-1.81-.33-1.78-2.1-2.23-3.51a27.73,27.73,0,0,1-.66-11.87,113.63,113.63,0,0,1,6.86-28.49c1.75-4.37,4.21-8.32,8.42-10.81,2.46-1.46,4.11-1.61,4.82,2A82.87,82.87,0,0,1,982.93,723.25ZM965.8,746.64c-.95,4-1.58,8-.14,12.15,2.15-.8,2.73-2.63,3.7-4.11,9.23-12.45,12-26.23,9.35-42a16.62,16.62,0,0,0-7,9.84C968,730.16,966.93,738.41,965.8,746.64Z" transform="translate(-634.65 -231.74)"/><path class="cls-9" d="M1171.79,297.57a65,65,0,0,1,46,19.95c18.27,18.48,27,40.82,24.7,67-5-.05-9,2.93-13.64,4.11-10.29,2.66-20.74,4-31.29,5.3-10.26,1.26-20.21-.7-30.31-.55a59.68,59.68,0,0,1-11.84-1.11c-12.23-2.3-24.36-5.07-36.06-9.4-2.58-.95-3.95-.36-5.78,1.85-12.09,14.65-25.3,28.2-41.08,39-11.47,7.84-24.55,12.44-37.07,18.2-15.53,7.14-31.62,12.41-48.55,13.41-16,.94-32.19,1.22-48.25-1.58-25.82-4.49-50.15-12.55-71.41-28.34-2.08-1.54-3-1.32-5,.1-8.78,6.32-18,12-28.1,15.94q-10.7,4.19-21.11,9a120.66,120.66,0,0,1-43.17,11,210.43,210.43,0,0,1-50.14-2.63A186.72,186.72,0,0,1,664,439.49c-4.16-2.24-7.34-6.33-12.44-6.8,1.32-22,10.67-39.91,27.24-54.14,7.86-6.74,16.74-12.08,25.61-17.37,16.3-9.72,29.07-22.51,37.08-40,6.38-13.94,14.76-26.34,28.42-34.53,33.07-19.81,86.52-10.92,105.64,26.41a1.78,1.78,0,0,0,.45.5c25.11-45.09,63.1-70.49,115-65.14,55.28,5.69,87.22,40.95,101.24,93.84a76.29,76.29,0,0,1,31.57-33.48c11.7-6.67,24.15-11.09,37.84-11.18A10.93,10.93,0,0,0,1171.79,297.57Zm-303,19.06a1.26,1.26,0,0,0,.16.33c.05.06.17.05.26.07l-.43-.4c0-2.15-1.68-3.16-2.94-4.41-9.09-9-19.83-15.46-31.14-21.17-6.31-3.19-12.81-5.31-20-5.45-15.25-.31-28.94,4.84-42.14,11.78a53.35,53.35,0,0,0-12,7.89c13.78-2.3,27.5-4.19,41.21-6.18,13.48-1.95,26.58-1.6,39.52,3.64C850.9,306.6,859.55,312.12,868.75,316.63Zm199.93,8c1.57-6.66,1.29-12.46-1.42-18-7.56-15.47-20.86-24.65-35.7-31.88A111.67,111.67,0,0,0,994,264.3c-15.06-1.59-29.58.29-44.29,4.18C999.69,265.16,1041.1,279.93,1068.68,324.66Zm65.06-10c9.15-.42,17,1,24.88,2.11,7.67,1,15.54,1.63,22.8,4.7,15.52,6.57,26.9,18.45,38.28,30.27a111.35,111.35,0,0,1,12.36,14.53c0-3.93,0-3.91-.83-5.67-7.25-15.91-19-28.3-31.25-40.37C1182.86,303.42,1153.9,302.59,1133.74,314.68Z" transform="translate(-634.65 -231.74)"/><path class="cls-10" d="M651.6,432.69c5.1.47,8.28,4.56,12.44,6.8a186.72,186.72,0,0,0,55.63,19.28,210.43,210.43,0,0,0,50.14,2.63,120.66,120.66,0,0,0,43.17-11q10.44-4.79,21.11-9c10.12-3.95,19.32-9.62,28.1-15.94,2-1.42,2.92-1.64,5-.1,21.26,15.79,45.59,23.85,71.41,28.34,16.06,2.8,32.22,2.52,48.25,1.58,16.93-1,33-6.27,48.55-13.41,12.52-5.76,25.6-10.36,37.07-18.2,15.78-10.78,29-24.33,41.08-39,1.83-2.21,3.2-2.8,5.78-1.85,11.7,4.33,23.83,7.1,36.06,9.4a59.68,59.68,0,0,0,11.84,1.11c10.1-.15,20,1.81,30.31.55,10.55-1.3,21-2.64,31.29-5.3,4.61-1.18,8.67-4.16,13.64-4.11-1,19.53-9.35,35.51-23.7,48.38-16.35,14.67-36,21.3-57.66,21.47a69.48,69.48,0,0,1-31.35-7.21c-2.64-1.31-3.27-1.12-4.18,1.93-14.11,47.78-44.86,78.52-94.19,87.93-32.62,6.22-63.22-1.19-90.47-20.62-3.47-2.47-4.43-2.42-6.25,1.71-18.79,42.72-75.07,65.66-120.61,30.44a78.14,78.14,0,0,1-23.5-30c-4.14-9.1-9.19-11.53-19.1-9.64a119.63,119.63,0,0,0-16.74,5c-40.07,13.83-94.39-9.3-102.73-60C650.84,447,649.54,439.81,651.6,432.69Z" transform="translate(-634.65 -231.74)"/><path class="cls-11" d="M1171.79,297.57a10.93,10.93,0,0,1-10.06,0A37.65,37.65,0,0,1,1171.79,297.57Z" transform="translate(-634.65 -231.74)"/><path class="cls-12" d="M803.55,721.54a14.42,14.42,0,0,1-3.79,5.12c-1-1.63-.93-3.44-1.06-5.26-.21-2.9.92-5.93-.8-8.69.52-12.51,4.05-24.42,7.42-36.34,2.12-7.47,4.38-14.91,7.9-21.89a2.36,2.36,0,0,1,1.49,2.36c-.37,11.37,1.09,22.78-1.51,34.11-2.12,9.18-5.52,17.92-8.27,26.88l0-.14C803.6,718.65,802.27,719.63,803.55,721.54Z" transform="translate(-634.65 -231.74)"/><path class="cls-13" d="M804.93,717.83c2.75-9,6.15-17.7,8.27-26.88,2.6-11.33,1.14-22.74,1.51-34.11a2.36,2.36,0,0,0-1.49-2.36,26.73,26.73,0,0,1,4.51-8.82c1.63-2,3.52-3.63,6.37-2.94s3,3.34,3.27,5.56c.87,7.7-.36,15.23-2.36,22.65a213.66,213.66,0,0,1-17.15,43.4C807.17,715.65,807.12,717.69,804.93,717.83Z" transform="translate(-634.65 -231.74)"/><path class="cls-11" d="M797.9,712.71c1.72,2.76.59,5.79.8,8.69.13,1.82.07,3.63,1.06,5.26-.73,1-1.66,3-2-.12A57.66,57.66,0,0,1,797.9,712.71Z" transform="translate(-634.65 -231.74)"/><path class="cls-13" d="M803.55,721.54c-1.28-1.91.05-2.89,1.4-3.85C805.81,719.46,804.2,720.33,803.55,721.54Z" transform="translate(-634.65 -231.74)"/><path class="cls-12" d="M986.78,670.2c-.89,2.22-2.76,3.51-5.17,5.69a185.23,185.23,0,0,1,3.17-29.69c2.37-13.19,5-26.33,10.43-38.71a2.06,2.06,0,0,1,1.43,1.85c.19,16.38,1.21,32.82-4.92,48.6-1.21,3.13-3.43,6.1-2.93,9.79l.06-.08-1.07,1.07.05-.08Z" transform="translate(-634.65 -231.74)"/><path class="cls-14" d="M988.79,667.73c-.5-3.69,1.72-6.66,2.93-9.79,6.13-15.78,5.11-32.22,4.92-48.6a2.06,2.06,0,0,0-1.43-1.85c1.83-3.29,3.21-7.87,8-6.77,4.37,1,4.78,5.7,5.28,9.38,1,7.79-1.5,15.12-3.76,22.44C1000.89,644.94,996.92,657.27,988.79,667.73Z" transform="translate(-634.65 -231.74)"/><path class="cls-14" d="M987.78,668.72l1.07-1.07Z" transform="translate(-634.65 -231.74)"/><path class="cls-14" d="M986.78,670.2l1.05-1.56Z" transform="translate(-634.65 -231.74)"/><path class="cls-15" d="M874.38,714.54c1.33-3.15,3.7-4.92,7-4,3,.79,2.91,3.82,3,6.23.36,20.09-5.24,38.57-15.44,55.76a1.64,1.64,0,0,1-.62.7c-.17.07-.49-.18-.74-.29.68-1.87,1.71-3.69,2-5.61,2.29-15.53,4.2-31.12,5-46.81C874.71,718.59,876.69,716.39,874.38,714.54Z" transform="translate(-634.65 -231.74)"/><path class="cls-16" d="M874.38,714.54c2.31,1.85.33,4.05.23,5.94-.82,15.69-2.73,31.28-5,46.81-.29,1.92-1.32,3.74-2,5.61A87.64,87.64,0,0,1,874.38,714.54Z" transform="translate(-634.65 -231.74)"/><path class="cls-17" d="M1056.47,719.53l-3.7,6.75a114.84,114.84,0,0,1,5.07-49.35c.9-2.79,1.22-6.27,4.79-7.51-5,15.73-1.06,32.54-5.8,48.3l.1,0C1055.82,718.07,1055.61,718.67,1056.47,719.53Z" transform="translate(-634.65 -231.74)"/><path class="cls-18" d="M1056.83,717.72c4.74-15.76.78-32.57,5.8-48.3.15-2.14,1.6-2.23,3.2-1.93a2.25,2.25,0,0,1,1.93,2.49C1067.7,686.72,1065.29,702.91,1056.83,717.72Z" transform="translate(-634.65 -231.74)"/><path class="cls-18" d="M1056.47,719.53c-.86-.86-.65-1.46.46-1.83C1056.78,718.31,1056.62,718.92,1056.47,719.53Z" transform="translate(-634.65 -231.74)"/><path class="cls-11" d="M1165.42,530.54c.66-4.6,1.82-9,5.51-13.2,4.86,20.35,3,39.28-5.92,57.51a10.23,10.23,0,0,1-.1-3c2.86-10.85,3-21.93,2.81-33C1167.67,535.91,1167.62,532.92,1165.42,530.54Z" transform="translate(-634.65 -231.74)"/><path class="cls-16" d="M1165.42,530.54c2.2,2.38,2.25,5.37,2.3,8.32.2,11.1,0,22.18-2.81,33a10.23,10.23,0,0,0,.1,3l-.06-.08-2.63,0A125.94,125.94,0,0,1,1165.42,530.54Z" transform="translate(-634.65 -231.74)"/><path class="cls-11" d="M1162.32,574.72l2.63,0a4.31,4.31,0,0,1-2,3.2C1162.72,576.83,1162.52,575.77,1162.32,574.72Z" transform="translate(-634.65 -231.74)"/><path class="cls-19" d="M898.76,636.64c-1-17.59,2.65-34,11.91-49.14,2.5,3.54,0,7.11,0,10.67.08,7.51-2.17,14.65-4,21.88-1.46,5.79-5.38,10.65-5.81,16.73h0Z" transform="translate(-634.65 -231.74)"/><path class="cls-15" d="M900.88,636.78c.43-6.08,4.35-10.94,5.81-16.73,1.82-7.23,4.07-14.37,4-21.88,0-3.56,2.49-7.13,0-10.67,4.45-1.51,8.71.9,7.75,5.23-3.44,15.46-7.31,30.86-17.07,43.91C901.27,636.74,901,636.74,900.88,636.78Z" transform="translate(-634.65 -231.74)"/><path class="cls-15" d="M898.76,636.64l2.14.14c-.28.92-.73,1.75-1.83,1.49C898.85,638.22,898.85,637.21,898.76,636.64Z" transform="translate(-634.65 -231.74)"/><path class="cls-17" d="M753.81,652.87c-2.51-3.42-1.09-7.29-1-10.9a67.29,67.29,0,0,1,10.39-35c1.11-1.8,2.22-3.76,4.31-4.73,1.21,1.73,1.26,3.69,1.31,5.7.25,10.86-3.18,20.82-7.52,30.5C759.05,643.4,756.31,648.08,753.81,652.87Z" transform="translate(-634.65 -231.74)"/><path class="cls-14" d="M753.81,652.87c2.5-4.79,5.24-9.47,7.44-14.4,4.34-9.68,7.77-19.64,7.52-30.5,0-2-.1-4-1.31-5.7,2.12-2.85,3.24-2.49,4.41.9C778,621,770.13,642.91,753.81,652.87Z" transform="translate(-634.65 -231.74)"/><path class="cls-15" d="M1095.81,554.77c3.91-1.13,4,2.23,4.63,4.31,2.31,7.44.9,14.86-.82,22.16A63.9,63.9,0,0,1,1086.9,607c-.19-1.78-.3-2.91-.42-4,4.47-2.52,4.06-7.42,5.14-11.37,3-11.11.3-23.09,4.92-34C1096.84,556.84,1096.08,555.7,1095.81,554.77Z" transform="translate(-634.65 -231.74)"/><path class="cls-16" d="M1095.81,554.77c.27.93,1,2.07.73,2.76-4.62,11-1.9,22.93-4.92,34-1.08,3.95-.67,8.85-5.14,11.37A78.45,78.45,0,0,1,1093,558.1,5.91,5.91,0,0,1,1095.81,554.77Z" transform="translate(-634.65 -231.74)"/><path class="cls-15" d="M971.68,722.54a16.62,16.62,0,0,1,7-9.84c2.69,15.75-.12,29.53-9.34,42,.14-1.68.29-3.35.44-5C973.54,740.83,973.61,731.76,971.68,722.54Z" transform="translate(-634.65 -231.74)"/><path class="cls-16" d="M971.68,722.54c1.93,9.22,1.86,18.29-1.87,27.12-2.55.61-2.89-1.72-4-3C966.93,738.41,968,730.16,971.68,722.54Z" transform="translate(-634.65 -231.74)"/><path class="cls-9" d="M965.8,746.64c1.12,1.3,1.46,3.63,4,3-.15,1.66-.3,3.33-.44,5-1,1.49-1.56,3.32-3.71,4.12C964.22,754.66,964.85,750.65,965.8,746.64Z" transform="translate(-634.65 -231.74)"/><path class="cls-20" d="M1068.68,324.66c-27.58-44.73-69-59.5-119-56.18,14.71-3.89,29.23-5.77,44.29-4.18a111.67,111.67,0,0,1,37.61,10.48c14.84,7.23,28.14,16.41,35.7,31.88C1070,312.2,1070.25,318,1068.68,324.66Z" transform="translate(-634.65 -231.74)"/><path class="cls-20" d="M1133.74,314.68c20.16-12.09,49.12-11.26,66.24,5.57,12.27,12.07,24,24.46,31.25,40.37.8,1.76.83,1.74.83,5.67a111.35,111.35,0,0,0-12.36-14.53c-11.38-11.82-22.76-23.7-38.28-30.27-7.26-3.07-15.13-3.65-22.8-4.7C1150.76,315.71,1142.89,314.26,1133.74,314.68Z" transform="translate(-634.65 -231.74)"/><path class="cls-20" d="M868.75,316.63c-9.2-4.51-17.85-10-27.43-13.9-12.94-5.24-26-5.59-39.52-3.64-13.71,2-27.43,3.88-41.21,6.18a53.35,53.35,0,0,1,12-7.89c13.2-6.94,26.89-12.09,42.14-11.78,7.15.14,13.65,2.26,20,5.45,11.31,5.71,22.05,12.21,31.14,21.17,1.26,1.25,3,2.26,2.94,4.41Z" transform="translate(-634.65 -231.74)"/><path class="cls-20" d="M868.74,316.63l.43.4c-.09,0-.21,0-.26-.07a1.26,1.26,0,0,1-.16-.33Z" transform="translate(-634.65 -231.74)"/></svg>