<svg id="Layer_2" data-name="Layer 2" xmlns="http://www.w3.org/2000/svg" viewBox="0 0 203.65 287.97"><defs><style>.cls-1{fill:#fff;}</style></defs><title>darkskyapi</title><path class="cls-1" d="M670.52,361.15s-3.95,1.63-20.91,24.14-17.1,73.49-17.1,73.49L646.27,540l57.65,41.68,14.17,5.05,13.94-7.8,28-64.66L743.07,351.75l-17.62-26.47-44.18,21.36Z" transform="translate(-605.79 -299.42)"/><path d="M666.46,366.33a192.79,192.79,0,0,0-12.25,77.84l15.13-5.93c-3.08,25.63.43,49.73,7.08,73.94L688,505.91c2.63,28.14,11.54,53.57,27.94,76.5-8.6-36.35-7.58-72.55,1.44-109.45l-15.21,7.33c-.69-28.63,7.89-54.23,21.55-79.51l-21.85,6.55c7.9-23.53,21.27-42.6,37.79-60.69,4.52,6.76,8.73,13.24,13.11,19.61,11.2,16.26,22.59,32.39,33.67,48.72,10.23,15.09,18.8,31.24,21.85,49.26,1.89,11.21.87,23,.75,34.46-.1,10.32-4,19.79-8.13,29a100.13,100.13,0,0,1-27.6,36.13c-9.71,8.06-20.48,14.6-32.7,18.24-34.45,10.26-66.6,6.14-95.32-16.36-21.22-16.63-34.61-38.09-38.36-65.19A113.7,113.7,0,0,1,617,434.9c9-19.06,21.21-36,34.66-52.11,4.1-4.91,8-10,12-14.92C664.08,367.43,664.78,367.25,666.46,366.33Z" transform="translate(-605.79 -299.42)"/><path d="M708,299.42l29.37,43.4c-24.11,1.67-46.09,7.54-66.8,18.33C684.65,341.88,699.73,323.58,708,299.42Z" transform="translate(-605.79 -299.42)"/></svg>