<svg xmlns="http://www.w3.org/2000/svg" viewBox="0 0 554.46 554.45"><defs><style>.cls-1{fill:none;}.cls-2{fill:#fff;}</style></defs><title>ml</title><g id="Layer_3" data-name="Layer 3"><rect class="cls-1" width="554.45" height="554.45"/></g><g id="Layer_4" data-name="Layer 4"><path d="M981.14,824.66,839.07,838.43V749.37c-8.27-.64-16.06-.92-23.77-1.9-20.4-2.58-40.79-5.3-61.13-8.32-5.3-.79-10.86-2-15.52-4.52-12.15-6.55-18-20-15.48-33.9,1-5.35,2.52-10.6,4-15.85.92-3.28.35-6-1.15-9.16a283.53,283.53,0,0,1-11.59-27.38c-2.91-8.32-1.52-16.88,1.26-25.14,1.68-4.87,3.36-9.72,5.09-14.86-3.53-1.33-6.72-2.33-9.72-3.7-10.53-4.79-19.53-11.09-22.06-23.44-1.49-7.2.09-14,3.36-20.32a144.72,144.72,0,0,1,10.39-16.72c12.46-17.74,25.5-35.08,37.58-53.07,10.52-15.67,16-33,15-52.32-.91-19.68,2.23-38.76,12-56.33,6-10.8,14.1-19.79,23.09-28.1,25-23,52.8-41.46,85.26-52.19a169.51,169.51,0,0,1,100.44-2.52c3.68,1,5.35,2.43,5,6.55-.43,6-.13,12-.16,18.05a16.59,16.59,0,0,1-.42,2H964.19c-9.76,0-9.76,0-9.76,9.65,0,8.82-.08,17.64.05,26.44,0,2.52-.84,3.54-3.23,4.41-7.75,2.78-15.42,5.79-23,9.13-2.34,1-3.43.57-4.94-1-6.92-7.33-13.92-14.58-20.88-21.84-1-1-1.85-2.08-2.26-2.52-12.6,12.55-24.85,24.85-37.47,37.47,5.82,6.1,12.48,13.07,19.11,20,6.37,6.72,6.22,6.63,2.52,14.89a173.16,173.16,0,0,0-6.48,16.79c-.84,2.71-1.94,3.78-4.9,3.72-10.08-.19-20.16,0-30.23-.13-3.28-.06-4.36.88-4.33,4.26q.25,22.67,0,45.35c0,3.62,1.24,4.46,4.6,4.4,9.94-.2,19.87,0,29.81-.13,2.79-.05,4,.67,5,3.53,2.84,8.58,6.18,17,9.57,26.11l-25.09,25,38.63,38.42c.4-.35,1.54-1.3,2.58-2.34,7-7,14.08-14,21-21.17,1.78-1.83,3.15-1.87,5.41-.88,7.69,3.36,15.56,6.25,23.22,9.63a5.19,5.19,0,0,1,2.31,3.94c.2,9.8.1,19.6.12,29.4,0,1.63.15,3.28.26,5.37,8,0,15.69.1,23.35-.16.84,0,2.23-2.14,2.28-3.36.25-5.88.12-11.75.12-17.63,0-18.77-.05-37.52,0-56.27,0-2.83-.44-4.2-3.8-4.39-24.54-1.4-46-17.85-54.17-41.26S921.93,440.87,940,424.4c10.49-9.56,22.77-15.17,37-16.2,3.57-.26,4.67-1.35,4.64-5-.17-23.65-.08-47.3-.08-71v-5.49c8.4,0,16.31-.1,24.22.17.69,0,1.85,2.45,1.87,3.78.16,10.21.22,20.43,0,30.65-.07,3.48.94,4.88,4.48,6a197,197,0,0,1,21.72,8.74c2.52,1.15,3.9,1,5.76-.89,7.23-7.42,14.61-14.69,21.94-22,1-1,2-1.89,3.29-3.07l37,38c-7.37,7.22-14.63,14.16-21.69,21.3-6.31,6.4-5.5,3.55-2,11.8,2.68,6.3,5.22,12.67,7.43,19.14.91,2.63,2.16,3.41,4.79,3.36,9.79-.14,19.59-.06,29.39-.06h4.81v51.47c-1.53.07-3,.21-4.5.22-9.93,0-19.88.1-29.81-.05-2.77,0-3.7,1-4.6,3.54q-4.17,11.61-9.14,22.92c-1,2.29-1.06,3.61.68,5.46,7.28,7.75,14.41,15.64,21.59,23.51.84.92,1.61,1.89,2.19,2.52l-36.66,36.65c-2.82-2.68-6-5.7-9.24-8.77-5-4.84-10.17-9.62-15.12-14.61-2.05-2.08-3.64-2.48-6.5-1.17-7.48,3.42-15.16,6.45-22.9,9.24-2.4.84-2.87,2.09-2.86,4.25.05,9.53,0,19,0,28.56,0,6.22,0,6.22-6,6.22-5.46,0-10.92.07-16.37,0-2.35-.05-3.19.84-3.18,3.17q.1,22.05,0,44.09c0,2.45,1.06,3.13,3.29,3.13,21.41,0,42.83,0,64.23-.14,1.43,0,3.29-1.42,4.2-2.72q7.47-10.65,14.47-21.63c1.62-2.58,3.52-3.44,6.5-3.41,13.44.14,26.88,0,40.32.11a6,6,0,0,0,6-3.36c7.45-12.28,22-17.11,35.48-12.11,13,4.8,20.73,18.31,18.75,32.64a29.45,29.45,0,0,1-27.15,25c-11.86.77-21-4-27.13-14.09a5.75,5.75,0,0,0-5.68-3.17c-9.52.15-19-.11-28.56.2a9,9,0,0,0-5.82,2.93c-5.29,6.31-10.31,12.89-15.25,19.51a6.63,6.63,0,0,1-6,2.9c-24.21-.09-48.43,0-72.64-.12-3.7,0-5.2.78-5,4.84.32,8.11.19,16.23.05,24.36-.05,2.78.66,4,3.72,4,46.47-.08,92.94,0,139.41-.16a5.6,5.6,0,0,0,4.14-2.35c6.5-11.38,17.48-16.6,30.87-14.36a29.09,29.09,0,0,1,24.14,23.71c2.63,14.85-4.83,28.15-18.85,33.6-13.1,5.09-27.55.11-35.27-12.46-1.48-2.42-3.11-3-5.73-3q-68.87.1-137.73,0c-3.69,0-4.85,1-4.74,4.72.26,9.1.24,18.2,0,27.3-.08,3.49,1,4.49,4.49,4.48,39.33-.11,78.66,0,118-.16,3.94,0,6.44,1.15,8.75,4.25,4.35,5.83,9.16,11.31,13.63,17.05a7.18,7.18,0,0,0,6.32,3.19q24.78-.21,49.55,0a5.44,5.44,0,0,0,5.29-3A29,29,0,0,1,1223,789.67c12.74,4.44,21.23,17.71,19.76,30.89-1.63,14.59-12,25.25-26.21,26.88-12.23,1.37-21.61-3.36-28.12-13.62-1.68-2.62-3.36-3.48-6.32-3.45-19.87.13-39.75,0-59.62.14a8.2,8.2,0,0,1-7.36-3.61c-4.76-6.21-9.69-12.32-14.82-18.23a7.85,7.85,0,0,0-5.24-2.52c-36.66-.14-73.34-.08-110-.17-3.08,0-4.26.84-4.11,4C981.29,814.81,981.14,819.54,981.14,824.66Zm1.29-291.72q34.62-1.41,52.48-30a62.55,62.55,0,0,0-3.2-70.22c-12.25-16.22-28.7-24.46-49.28-25.31Z" transform="translate(-688.46 -293.22)"/><path class="cls-2" d="M982.43,533V407.41c20.58.84,37,9.1,49.28,25.31a62.57,62.57,0,0,1,3.2,70.23Q1017,531.55,982.43,533Z" transform="translate(-688.46 -293.22)"/></g></svg>