<svg id="Layer_2" data-name="Layer 2" xmlns="http://www.w3.org/2000/svg" viewBox="0 0 660.34 660.19"><defs><style>.cls-1{fill:#fff;}</style></defs><title>ml</title><path d="M979.69,844l-169.16,16.4V754.35c-9.85-.76-19.13-1.1-28.31-2.26-24.29-3.07-48.56-6.31-72.78-9.91-6.31-.94-12.94-2.41-18.48-5.38C676.49,729,669.47,713,672.52,696.43c1.17-6.37,3-12.62,4.79-18.87,1.1-3.91.42-7.14-1.37-10.91a334,334,0,0,1-13.8-32.6c-3.46-9.91-1.81-20.1,1.5-29.93,2-5.8,4-11.58,6.06-17.7-4.2-1.58-8-2.77-11.57-4.4-12.54-5.71-23.26-13.21-26.27-27.91-1.77-8.58.11-16.72,4-24.2A174.45,174.45,0,0,1,648.23,510c14.84-21.12,30.36-41.77,44.75-63.19,12.53-18.66,19-39.3,17.91-62.3-1.09-23.44,2.65-46.15,14.3-67.08,7.15-12.85,16.79-23.56,27.49-33.45,29.72-27.45,62.87-49.37,101.53-62.15a201.82,201.82,0,0,1,119.59-3c4.38,1.21,6.37,2.89,6,7.8-.51,7.13-.15,14.32-.19,21.49a17.2,17.2,0,0,1-.5,2.36h-19.6c-11.62,0-11.62,0-11.62,11.49,0,10.5-.09,21,.06,31.49,0,3-1,4.21-3.84,5.25-9.23,3.31-18.37,6.89-27.33,10.87-2.79,1.24-4.09.68-5.89-1.22-8.23-8.73-16.57-17.36-24.86-26-1.14-1.2-2.2-2.48-2.69-3-15,14.94-29.59,29.59-44.61,44.61,6.93,7.27,14.85,15.56,22.75,23.87,7.59,8,7.41,7.89,3,17.72a204.44,204.44,0,0,0-7.71,20c-1,3.23-2.31,4.5-5.84,4.43-12-.23-24,.05-36-.16-3.9-.07-5.19,1.05-5.15,5.07q.3,27,0,54c-.05,4.31,1.47,5.31,5.48,5.24,11.83-.23,23.66,0,35.49-.15,3.32-.06,4.81.8,5.93,4.2,3.38,10.22,7.36,20.23,11.4,31.09L838.2,519l46,45.75c.47-.42,1.83-1.55,3.07-2.79,8.36-8.36,16.77-16.69,25-25.2,2.11-2.18,3.74-2.23,6.44-1.05,9.15,4,18.52,7.44,27.65,11.46,1.38.61,2.71,3.07,2.75,4.7.23,11.66.11,23.33.14,35,0,1.95.18,3.91.31,6.4,9.55,0,18.68.12,27.8-.19,1,0,2.66-2.55,2.72-4,.29-7,.14-14,.14-21,0-22.34-.06-44.67,0-67,0-3.37-.53-5-4.52-5.22-29.22-1.67-54.77-21.26-64.51-49.13s-2-59.72,19.56-79.33c12.49-11.38,27.11-18.06,44-19.29,4.25-.31,5.56-1.61,5.53-6-.2-28.16-.1-56.33-.1-84.5v-6.53c10,0,19.42-.12,28.84.2.83,0,2.21,2.92,2.23,4.5.19,12.16.26,24.33,0,36.49-.08,4.15,1.12,5.82,5.33,7.17a233.64,233.64,0,0,1,25.87,10.41c3,1.37,4.64,1.21,6.86-1.06,8.61-8.83,17.39-17.49,26.12-26.2,1.16-1.16,2.4-2.24,3.92-3.65l44,45.21c-8.78,8.6-17.43,16.86-25.83,25.36-7.52,7.62-6.55,4.23-2.36,14.06,3.19,7.5,6.22,15.08,8.85,22.78,1.08,3.14,2.57,4.06,5.7,4,11.66-.16,23.33-.06,35-.06h5.72v61.28c-1.82.09-3.59.25-5.35.26-11.83,0-23.67.12-35.5-.06-3.3,0-4.41,1.24-5.48,4.22-3.31,9.21-6.93,18.33-10.88,27.29-1.2,2.73-1.26,4.3.81,6.5,8.67,9.23,17.16,18.62,25.71,28,1,1.09,1.92,2.25,2.61,3l-43.66,43.64c-3.36-3.19-7.2-6.79-11-10.44-6-5.77-12.11-11.46-18-17.4-2.44-2.48-4.34-2.95-7.74-1.39-8.91,4.07-18.06,7.68-27.27,11-2.86,1-3.42,2.49-3.41,5.06.06,11.34,0,22.67,0,34,0,7.41,0,7.41-7.17,7.41-6.5,0-13,.09-19.49,0-2.8-.06-3.8,1-3.78,3.78q.12,26.25,0,52.5c0,2.91,1.26,3.72,3.91,3.72,25.5,0,51,0,76.49-.17,1.7,0,3.91-1.69,5-3.23q8.88-12.69,17.22-25.76c1.94-3.07,4.2-4.1,7.75-4.06,16,.17,32,0,48,.13,3.35,0,5.27-.95,7.11-4,8.87-14.62,26.18-20.37,42.25-14.42,15.44,5.72,24.68,21.8,22.33,38.87-2.21,16-15.91,28.65-32.33,29.73-14.12.92-25-4.81-32.31-16.78-1.73-2.81-3.55-3.81-6.76-3.77-11.33.17-22.67-.13-34,.23a10.66,10.66,0,0,0-6.93,3.49c-6.31,7.52-12.28,15.35-18.16,23.23a7.89,7.89,0,0,1-7.14,3.46c-28.83-.11-57.66,0-86.49-.15-4.41,0-6.19.94-6,5.77.38,9.65.22,19.33.06,29-.06,3.32.78,4.73,4.43,4.72,55.33-.1,110.66,0,166-.19a6.7,6.7,0,0,0,4.93-2.8c7.73-13.55,20.81-19.76,36.75-17.1a34.65,34.65,0,0,1,28.75,28.24c3.13,17.68-5.75,33.51-22.45,40-15.6,6.06-32.8.13-42-14.83-1.76-2.88-3.7-3.63-6.82-3.63q-82,.12-164,0c-4.39,0-5.77,1.19-5.64,5.62.31,10.83.28,21.67,0,32.5-.1,4.16,1.21,5.35,5.35,5.34,46.83-.13,93.66,0,140.49-.19,4.69,0,7.67,1.36,10.42,5.06,5.18,6.94,10.91,13.46,16.23,20.3a8.58,8.58,0,0,0,7.52,3.8c19.67-.17,39.34-.14,59,0,3,0,4.7-1,6.3-3.64a34.58,34.58,0,0,1,41.59-15.09c15.17,5.28,25.28,21.08,23.53,36.78-1.94,17.37-14.32,30.07-31.2,32-14.57,1.64-25.74-4-33.49-16.21-2-3.12-4-4.14-7.52-4.11-23.66.15-47.33,0-71,.17a9.78,9.78,0,0,1-8.76-4.3c-5.67-7.4-11.54-14.67-17.65-21.71a9.33,9.33,0,0,0-6.23-3c-43.66-.17-87.33-.09-131-.2-3.67,0-5.07,1-4.89,4.81C979.88,832.27,979.69,837.91,979.69,844Zm1.54-347.36q41.22-1.68,62.49-35.74a74.48,74.48,0,0,0-3.81-83.62c-14.59-19.31-34.17-29.12-58.68-30.14Z" transform="translate(-631.19 -211.23)"/><path class="cls-1" d="M981.23,496.67V347.17c24.51,1,44.09,10.83,58.68,30.14a74.48,74.48,0,0,1,3.81,83.62Q1022.45,495,981.23,496.67Z" transform="translate(-631.19 -211.23)"/></svg>