<svg id="Layer_2" data-name="Layer 2" xmlns="http://www.w3.org/2000/svg" viewBox="0 0 894.44 696.98"><defs><style>.cls-1{fill:#fefefe;}.cls-2{fill:#eb573f;}.cls-3{fill:#ea5038;}.cls-4{fill:#ea5037;}</style></defs><title>openweather</title><path class="cls-1" d="M968.17,790.72h7.25q120.81,0,241.6-.09c12.13,0,22.62-4,28.68-15.73,10.77-20.74-1.92-44.5-28.37-44.31-61.17.42-122.35.19-183.53.1-20.06,0-30.54-9.81-30.84-28.17-.3-18.88,10.39-29.37,30.58-29.74,10.71-.19,21.43.17,32.14-.12,14.49-.4,26.84-12.79,27.76-27.4.93-14.89-8.93-27.36-23.84-29.54-5.77-.85-11.69-.69-17.55-1-10.12-.52-19-5.78-22.63-14-8.75-19.53-.15-44.8,27.16-44.64,96.43.59,192.87.21,289.3.28,6,0,11.74-.16,16.81-3.83,11.3-8.17,16-21.4,12.47-33.52-3-10.27-16.39-22-29.61-21.48-23.47.89-47-.29-70.49.49-10.56.36-11.71-3.09-10.07-12.44,8.21-46.84,1.63-92.87-10.48-138.09a311.34,311.34,0,0,0-20-52.79c-11.34-23.89-25.46-45.78-41.24-66.76-14-18.56-30.51-34.73-48-50a301.66,301.66,0,0,0-60.81-41.7A408.75,408.75,0,0,0,1009.42,107c-27.38-7.73-55.31-9.29-83.09-12.76-13.18-1.64-26.46,2.46-39.54,3.15-38.19,2-73.72,13.61-108.14,28.2-25,10.59-48.07,25.31-70,42A340,340,0,0,0,618.58,270a330.2,330.2,0,0,0-39.64,109.42c-5.29,31.25-7.56,62.33-5,93.82.62,7.55,5.2,17,2.15,22.06-3.93,6.57-14.43,1.72-22,2.49-12.93,1.32-27.71,15.94-28.21,28.67-.55,14,14.32,29.83,28.37,29.86q55.47.1,110.95,0A24.48,24.48,0,0,1,678.71,560c13,7.83,16.16,22.34,11,39.19-2.49,8.12-15.18,15.25-27.7,15.75-7.8.31-15.75-.15-22.84,4.51-11.11,7.32-13.64,22.07-9.42,37.38,2.33,8.46,13.86,15.7,25.61,15.79,29.38.22,58.76.1,88.14.11,30.07,0,60.16-.63,90.21.24,21,.61,28.88,8.72,29.9,27.7,1,18.36-8.8,29.87-30.64,30q-57.56.27-115.1,0c-12,0-23.14,4-27.56,14.46-9.37,22.29-.23,45.25,30.05,45.42C803,791,885.56,790.72,968.17,790.72Zm391.59-118c9,0,18-.1,26.94,0,13.2.2,23.21-3.71,30-16.52,8.84-16.55.47-37.7-18.51-39.89-25.71-3-51.62-2.44-77.45,0-6,.56-10.46,3.92-13.58,8.5-8,11.63-8.14,24.37-1.08,36,5.14,8.48,14.44,12,24.61,11.92C1340.41,672.73,1350.09,672.75,1359.76,672.75Zm-166.18,0v0c11.06,0,22.13.44,33.15-.11a28.7,28.7,0,0,0,27.08-26.17c1.16-16.14-8.11-29.32-23.47-30.57A437.82,437.82,0,0,0,1158,616c-3.23.27-6.71-.31-9.9,2-11,7.83-15.08,22-10.48,38.15,2.69,9.44,13.25,16.34,25.91,16.59C1173.55,672.9,1183.57,672.74,1193.58,672.74Z" transform="translate(-525.84 -93.84)"/><path class="cls-2" d="M968.17,790.72c-82.61,0-165.22.31-247.83-.17-30.28-.17-39.42-23.13-30.05-45.42,4.42-10.5,15.61-14.51,27.56-14.46q57.55.23,115.1,0c21.84-.11,31.64-11.62,30.64-30-1-19-8.86-27.09-29.9-27.7-30.05-.87-60.14-.23-90.21-.24-29.38,0-58.76.11-88.14-.11-11.75-.09-23.28-7.33-25.61-15.79-4.22-15.31-1.69-30.06,9.42-37.38,7.09-4.66,15-4.2,22.84-4.51,12.52-.5,25.21-7.63,27.7-15.75,5.18-16.85,2-31.36-11-39.19a24.48,24.48,0,0,0-13.54-3.68q-55.47.07-110.95,0c-14.05,0-28.92-15.81-28.37-29.86.5-12.73,15.28-27.35,28.21-28.67,7.61-.77,18.11,4.08,22-2.49,3-5.08-1.53-14.51-2.15-22.06-2.57-31.49-.3-62.57,5-93.82A330.2,330.2,0,0,1,618.58,270a340,340,0,0,1,90.08-102.49c21.92-16.65,45-31.37,70-42,34.42-14.59,70-26.15,108.14-28.2,13.08-.69,26.36-4.79,39.54-3.15,27.78,3.47,55.71,5,83.09,12.76a408.75,408.75,0,0,1,75.13,29.33,301.66,301.66,0,0,1,60.81,41.7c17.45,15.25,34,31.42,48,50,15.78,21,29.9,42.87,41.24,66.76a311.34,311.34,0,0,1,20,52.79c12.11,45.22,18.69,91.25,10.48,138.09-1.64,9.35-.49,12.8,10.07,12.44,23.47-.78,47,.4,70.49-.49,13.22-.5,26.58,11.21,29.61,21.48,3.58,12.12-1.17,25.35-12.47,33.52-5.07,3.67-10.85,3.83-16.81,3.83-96.43-.07-192.87.31-289.3-.28-27.31-.16-35.91,25.11-27.16,44.64,3.66,8.19,12.51,13.45,22.63,14,5.86.29,11.78.13,17.55,1,14.91,2.18,24.77,14.65,23.84,29.54-.92,14.61-13.27,27-27.76,27.4-10.71.29-21.43-.07-32.14.12-20.19.37-30.88,10.86-30.58,29.74.3,18.36,10.78,28.14,30.84,28.17,61.18.09,122.36.32,183.53-.1,26.45-.19,39.14,23.57,28.37,44.31-6.06,11.68-16.55,15.71-28.68,15.73q-120.8.24-241.6.09Z" transform="translate(-525.84 -93.84)"/><path class="cls-3" d="M1359.76,672.75c-9.67,0-19.35,0-29,0-10.17,0-19.47-3.44-24.61-11.92-7.06-11.63-6.87-24.37,1.08-36,3.12-4.58,7.53-7.94,13.58-8.5,25.83-2.4,51.74-2.92,77.45,0,19,2.19,27.35,23.34,18.51,39.89-6.84,12.81-16.85,16.72-30,16.52C1377.72,672.65,1368.74,672.75,1359.76,672.75Z" transform="translate(-525.84 -93.84)"/><path class="cls-4" d="M1193.58,672.74c-10,0-20,.16-30,0-12.66-.25-23.22-7.15-25.91-16.59-4.6-16.12-.54-30.32,10.48-38.15,3.19-2.26,6.67-1.68,9.9-2a437.82,437.82,0,0,1,72.33-.15c15.36,1.25,24.63,14.43,23.47,30.57a28.7,28.7,0,0,1-27.08,26.17c-11,.55-22.09.11-33.15.11Z" transform="translate(-525.84 -93.84)"/></svg>