<svg id="Layer_1" data-name="Layer 1" xmlns="http://www.w3.org/2000/svg" viewBox="0 0 894.44 894.22"><defs><style>.cls-1{fill:#48a947;}.cls-2{fill:#c2e2c2;}.cls-3{fill:#f8fbf8;}.cls-4{fill:#f9fcf9;}.cls-5{fill:#4aa949;}</style></defs><title>pixabay</title><path class="cls-1" d="M526.77,93.84h893.47V987.3q-443.16,0-886.31,0c-2.17,0-4.85,1-6.4-.64-1.39-1.48-.52-4-.52-6.13q0-440.35,0-880.72C527,97.8,526.84,95.82,526.77,93.84ZM640.48,684.27h0q0,78.18,0,156.35c0,9.93-.15,19.85,1,29.75.62,5.58.21,4.75,5.14,5a673.85,673.85,0,0,0,67.72.41c3.59-.18,3.59-.17,3.61-3.76,0-.75,0-1.49,0-2.24q0-73.89,0-147.79c0-5.77-.63-5,4.89-5,35.24-.08,70.48.06,105.72-.36,19.3-.23,38.43-1.93,57-7.46,41.33-12.3,75.08-35.82,100.62-70.44,35.06-47.55,46.59-101.17,36.76-158.95-9.16-53.83-37-96.66-81.89-127.74-43.93-30.44-92.73-41.19-145.15-30-63.7,13.6-109.2,51-136.7,110-13.2,28.32-18.77,58.39-18.72,89.59Q640.58,602.92,640.48,684.27ZM996.74,319.05c1.2,1.82,2.21,3.36,3.23,4.89q61.33,91.92,122.65,183.87c2.29,3.43,2.49,2.38,0,6-.14.21-.28.41-.43.61q-69.45,97.88-138.9,195.75a10.32,10.32,0,0,0-2.08,3.41,6.46,6.46,0,0,0,3.43.41c28.54,0,57.07,0,85.61.07a6.47,6.47,0,0,0,5.81-3c15-19.75,29.45-39.93,43.87-60.11,19.41-27.15,38.74-54.35,59.59-80.43.83-1,1.44-2.33,3-3l14.9,20.38q45,61.6,90,123.23c1.19,1.64,2.22,2.9,4.68,2.89,29.28-.11,58.56-.07,87.84-.09.78,0,1.77.43,2.3-.67a15.11,15.11,0,0,0-2.38-3.72q-69.33-97.51-138.65-195c-3.23-4.54-3.18-2.9-.1-7.54q61.41-92.32,122.86-184.63c.72-1.08,1.72-2.07,1.89-3.48-1.46-.67-2.83-.38-4.16-.38-27.92,0-55.83,0-83.75-.09-3.32,0-5.29.94-7.18,3.77q-43.11,64.72-86.47,129.29c-.8,1.18-1.4,2.56-2.64,3.41a11.78,11.78,0,0,1-2.58-3.34q-43.5-64.92-86.91-129.89a6.26,6.26,0,0,0-6-3.24c-28.41.12-56.82.07-85.23.09A8.33,8.33,0,0,0,996.74,319.05Z" transform="translate(-525.84 -93.84)"/><path class="cls-2" d="M526.77,93.84c.07,2,.21,4,.21,5.94q0,440.36,0,880.72c0,2.08-.87,4.65.52,6.13,1.55,1.64,4.23.64,6.4.64q443.16.06,886.31,0c-.17.23.37.78-.38.76-1,0-2,0-3,0H526v-5.4q0-442.72,0-885.46C526.07,96.1,525.21,94.66,526.77,93.84Z" transform="translate(-525.84 -93.84)"/><path class="cls-3" d="M640.48,684.27q0-81.35,0-162.68c-.05-31.2,5.52-61.27,18.72-89.59,27.5-59,73-96.35,136.7-109.95,52.42-11.19,101.22-.44,145.15,30,44.85,31.08,72.73,73.91,81.89,127.74,9.83,57.78-1.7,111.4-36.76,159-25.54,34.62-59.29,58.14-100.62,70.44-18.57,5.53-37.7,7.23-57,7.46-35.24.42-70.48.28-105.72.36-5.52,0-4.88-.78-4.89,5q0,73.9,0,147.79c0,.75,0,1.49,0,2.24,0,3.59,0,3.58-3.61,3.76a673.85,673.85,0,0,1-67.72-.41c-4.93-.25-4.52.58-5.14-5-1.12-9.9-1-19.82-1-29.75q0-78.18,0-156.35Zm140.77-47.39v0c16.37,0,32.75-.07,49.13,0a118,118,0,0,0,48.85-9.74C928.54,605.48,956,551,948.6,500.08c-5.62-38.73-25.84-68.22-59.69-87.88-22-12.78-45.9-18-71.23-14.32-30.12,4.41-54.87,18.8-74.29,42.16A105,105,0,0,0,719,497.76a508.78,508.78,0,0,0-2,53.53c.17,27.55.73,55.09,1.14,82.63,0,2.9.07,2.9,2.86,3,.37,0,.74,0,1.11,0Z" transform="translate(-525.84 -93.84)"/><path class="cls-4" d="M996.74,319.05a8.33,8.33,0,0,1,4.14-.5c28.41,0,56.82,0,85.23-.09a6.26,6.26,0,0,1,6,3.24q43.37,65,86.91,129.89a11.78,11.78,0,0,0,2.58,3.34c1.24-.85,1.84-2.23,2.64-3.41q43.29-64.61,86.47-129.29c1.89-2.83,3.86-3.79,7.18-3.77,27.92.13,55.83.07,83.75.09,1.33,0,2.7-.29,4.16.38-.17,1.41-1.17,2.4-1.89,3.48Q1302.46,414.73,1241,507c-3.08,4.64-3.13,3,.1,7.54q69.3,97.53,138.65,195a15.11,15.11,0,0,1,2.38,3.72c-.53,1.1-1.52.67-2.3.67-29.28,0-58.56,0-87.84.09-2.46,0-3.49-1.25-4.68-2.89q-45-61.63-90-123.23l-14.9-20.38c-1.53.65-2.14,1.94-3,3-20.85,26.08-40.18,53.28-59.59,80.43-14.42,20.18-28.85,40.36-43.87,60.11a6.47,6.47,0,0,1-5.81,3c-28.54-.1-57.07-.06-85.61-.07a6.46,6.46,0,0,1-3.43-.41,10.32,10.32,0,0,1,2.08-3.41q69.43-97.89,138.9-195.75c.15-.2.29-.4.43-.61,2.52-3.63,2.32-2.58,0-6q-61.3-91.95-122.65-183.87C999,322.41,997.94,320.87,996.74,319.05Z" transform="translate(-525.84 -93.84)"/><path class="cls-5" d="M781.25,636.88H722.06c-.37,0-.74,0-1.11,0-2.79-.07-2.82-.07-2.86-3-.41-27.54-1-55.08-1.14-82.63a508.78,508.78,0,0,1,2-53.53A105,105,0,0,1,743.39,440c19.42-23.36,44.17-37.75,74.29-42.16,25.33-3.72,49.23,1.54,71.23,14.32,33.85,19.66,54.07,49.15,59.69,87.88,7.39,50.93-20.06,105.4-69.37,127.1a118,118,0,0,1-48.85,9.74c-16.38-.09-32.76,0-49.13,0Z" transform="translate(-525.84 -93.84)"/></svg>