<svg xmlns="http://www.w3.org/2000/svg" viewBox="0 0 554.45 554.45"><defs><style>.cls-1{fill:none;}.cls-2{fill:#3b87c2;}.cls-3{fill:#56aced;}</style></defs><title>shirt</title><g id="Layer_3" data-name="Layer 3"><rect class="cls-1" width="554.45" height="554.45"/></g><g id="Layer_2" data-name="Layer 2"><path class="cls-2" d="M1154.71,541.36c-7.35.75-14.65,0-21.92-1-3.14-.39-4,.48-3.91,3.65,1.22,39.46,2.06,78.94,4.54,118.35,1.35,21.45,2.58,42.91,6.34,64.1,1.54,8.68,4.08,17.17,4,26.11-.18,16.92-8.15,27-24.68,31.07-8.16,2-16.5,2.43-24.8,2.44q-128.5.15-257,0a126.8,126.8,0,0,1-19.91-1.47c-22.16-3.56-33.36-17.07-29-39,9.94-50.31,10.77-101.26,12.73-152.17.62-16.31.94-32.64,1.6-49,.15-3.59-.85-4.6-4.42-4.11a90.32,90.32,0,0,1-21.42.91,9.75,9.75,0,0,0-.28-2c-8-21.66-14-43.9-19.73-66.19-7-27.09-13.37-54.33-20-81.51,13-8.74,27.45-14.1,42.17-18.82,28.57-9.17,57.68-15.83,87.73-17.8,1.64-.11,3.3,0,5,0a45.71,45.71,0,0,0,2.89,17c6.46,16.88,18.78,28.27,34.34,36.47,21.39,11.27,44.13,15.34,68.26,13.15,20.82-1.88,40-7.92,56.81-20.33,15.55-11.46,25.77-26.14,25.92-46.33,15.2,0,30.11,2.47,44.95,5.46,26.44,5.32,52.4,12.29,76.93,23.82a72.51,72.51,0,0,1,13,7.37c-.26,1-.57,1.9-.79,2.87-8.26,36.5-17.15,72.85-27.61,108.79C1162.63,516.08,1158.6,528.7,1154.71,541.36Z" transform="translate(-688.46 -293.22)"/><path class="cls-3" d="M1059.88,355.06c-.15,20.19-10.37,34.87-25.92,46.33-16.85,12.41-36,18.45-56.81,20.33-24.13,2.19-46.87-1.88-68.26-13.15C893.33,400.37,881,389,874.55,372.1a45.71,45.71,0,0,1-2.89-17c3.81-.11,7.63-.19,11.44-.36a3.22,3.22,0,0,1,3.65,2.55,39.58,39.58,0,0,0,19.11,22.23c40,21.77,80.33,21.74,120.24-.26a39,39,0,0,0,18.69-22,3.23,3.23,0,0,1,3.65-2.57C1052.25,354.87,1056.07,355,1059.88,355.06Z" transform="translate(-688.46 -293.22)"/><path class="cls-3" d="M1154.71,541.36c3.89-12.66,7.92-25.28,11.62-38,10.46-35.94,19.35-72.29,27.61-108.79.22-1,.53-1.92.79-2.87,11,5.56,14.73,14,13.38,26.53a470.46,470.46,0,0,1-20.3,96.28c-.72,2.21-1.54,4.38-2.35,6.56C1179.7,536.49,1171.32,542,1154.71,541.36Z" transform="translate(-688.46 -293.22)"/><path class="cls-3" d="M736.8,391.7c6.65,27.18,13,54.42,20,81.51,5.75,22.29,11.77,44.53,19.73,66.19a9.75,9.75,0,0,1,.28,2c-6.28.43-12.2-1.08-18-3.38s-8.81-7.17-11.1-12.75c-7.76-19-12.62-38.8-16.89-58.77a433.09,433.09,0,0,1-7.75-51.19C722.14,404.33,726.05,397.42,736.8,391.7Z" transform="translate(-688.46 -293.22)"/></g></svg>