<svg id="Layer_3" data-name="Layer 3" xmlns="http://www.w3.org/2000/svg" viewBox="0 0 554.45 554.45"><defs><style>.cls-1{fill:none;}.cls-2{fill:#05acee;}.cls-3{fill:#14aced;}.cls-4{fill:#13aced;}.cls-5{fill:#15acee;}.cls-6{fill:#11abed;}.cls-7{fill:#14acee;}.cls-8{fill:#16adee;}.cls-9{fill:#11aced;}.cls-10{fill:#c8f0fa;}.cls-11{fill:#95e3fb;}.cls-12{fill:#edf9fb;}.cls-13{fill:#c8f0f9;}.cls-14{fill:#f1fafc;}.cls-15{fill:#f2fafc;}.cls-16{fill:#f1f9fc;}.cls-17{fill:#caf1fa;}.cls-18{fill:#c9f0fa;}.cls-19{fill:#eff9fb;}.cls-20{fill:#cbf1f9;}.cls-21{fill:#fbfdfd;}</style></defs><title>cloudwithrain</title><rect class="cls-1" width="554.45" height="554.45"/><path class="cls-2" d="M1095.48,399.11c13.31-14.61,29.23-23.58,48.15-27.18,44-8.38,83.71,16.26,95.94,59.41,15.92,56.21-28,100.27-71.38,105-2.66.29-5.32.88-8,.64-11.84-1-21.19,4.06-29.44,11.87-7.22,6.84-13.16,14.79-19.52,22.39-20.63,24.68-47.38,37.44-79.06,40.51-24.4,2.36-47.31-2.44-68.45-15-2.66-1.6-3.18,0-4.26,1.56-17,25-40.82,38.81-70.91,38.46-33.58-.38-58.23-17.14-74-46.65-1.95-3.64-3.27-3.74-6.67-2.24-44.1,19.52-98.64-2.89-114.47-47-12.95-36-.17-81.16,33.72-102.31,8.27-5.17,16.42-10.53,24.48-16,8.49-5.76,14.68-13.58,19.52-22.61s9.3-18.52,16.86-25.9c17.37-17,38.6-23.5,62.38-21.94,20.91,1.36,38.81,9.51,52.52,25.86C952.49,301.67,1062.47,312.72,1095.48,399.11ZM703.54,505.26c-1.83,6.32-.68,12.65.34,18.86,7.4,45,55.61,65.5,91.16,53.24a106.64,106.64,0,0,1,14.86-4.44c8.79-1.68,13.31.48,17,8.56A69.36,69.36,0,0,0,847.7,608.1c40.41,31.25,90.35,10.89,107-27,1.61-3.66,2.46-3.7,5.54-1.51,24.18,17.24,51.34,23.81,80.28,18.29,43.78-8.35,71.06-35.62,83.58-78,.81-2.71,1.37-2.88,3.71-1.71a61.58,61.58,0,0,0,27.82,6.39c19.27-.15,36.66-6,51.17-19,12.73-11.42,20.18-25.6,21-42.93,2-23.25-5.71-43.07-21.92-59.45a57.67,57.67,0,0,0-40.82-17.71,33.38,33.38,0,0,0-8.93,0c-12.14.08-23.19,4-33.57,9.92a67.72,67.72,0,0,0-28,29.71c-12.42-46.93-40.82-78.22-89.84-83.27-46.09-4.74-79.8,17.8-102,57.81a1.56,1.56,0,0,1-.4-.45c-17-33.11-64.43-41-93.72-23.42-12.12,7.26-19.52,18.27-25.22,30.64-7.1,15.51-18.44,26.86-32.9,35.49-7.87,4.7-15.75,9.43-22.73,15.42C713,469.84,704.71,485.77,703.54,505.26Z" transform="translate(-688.46 -293.22)"/><path class="cls-3" d="M862.38,701.32a53,53,0,0,1-2.82,18.73c-4.51,14.51-9.82,28.75-17.83,41.78a83.14,83.14,0,0,1-6,8.25c-1,1.19-1.87,3.24-3.66,2.73s-1.42-2.66-1.66-4.22c-1.47-10-.27-19.74,1.86-29.46a235.36,235.36,0,0,1,11.34-37.64,30.62,30.62,0,0,1,6.1-10.19c2.11-2.19,4.58-3.67,7.92-2.52s4.43,3.65,4.69,6.78C862.49,697.47,862.38,699.4,862.38,701.32Zm-22.72,56.84v.12c1.94-.12,2-1.93,2.6-3.1a189.74,189.74,0,0,0,15.15-38.51c1.77-6.59,2.86-13.27,2.09-20.1-.22-2-.3-4.32-2.9-4.94s-4.21.8-5.65,2.61a23.63,23.63,0,0,0-4,7.83c-3.13,6.21-5.13,12.79-7,19.42-3,10.58-6.13,21.15-6.59,32.25a51.39,51.39,0,0,0-.1,12.27c.28,2.74,1.1,1,1.78.11a13,13,0,0,0,3.36-4.54C839,760.5,840.38,759.73,839.66,758.16Z" transform="translate(-688.46 -293.22)"/><path class="cls-4" d="M1023.63,665.31c-3.81,20.23-8.79,39.94-23.07,55.91a33.34,33.34,0,0,1-4,3.55c-.75.6-1.49,1.63-2.66,1s-.89-1.78-.81-2.78c1.54-19.74,3.91-39.33,10.51-58.15a36,36,0,0,1,4.93-9.85c4.3-5.77,9.84-5.25,13.17,1.19C1023.2,659.05,1023.27,662.1,1023.63,665.31Zm-21.73,49.32,0,.07.95-.94,0,.07c7.21-9.29,10.74-20.23,14.14-31.23,2-6.5,4.26-13,3.33-19.91-.44-3.27-.81-7.43-4.68-8.33-4.24-1-5.47,3.09-7.1,6-4.81,11-7.15,22.65-9.26,34.35a165.22,165.22,0,0,0-2.81,26.35c2.14-1.94,3.8-3.08,4.59-5.05Z" transform="translate(-688.46 -293.22)"/><path class="cls-5" d="M890.17,790.42A89.11,89.11,0,0,1,897,757.18a17,17,0,0,1,3.61-6c2.38-2.29,5.12-3.4,8.46-2.06,3.12,1.24,3.84,3.84,3.93,6.77.6,20.41-6,38.78-16.15,56.1-.5.83-.89,2-2.16,2-1.58-.11-1.63-1.6-1.88-2.66A99.06,99.06,0,0,1,890.17,790.42Zm5,16.73c.22.1.51.32.66.26a1.5,1.5,0,0,0,.55-.62c9.05-15.26,14-31.66,13.7-49.48,0-2.14,0-4.83-2.66-5.53-3-.78-5.08.79-6.22,3.55a77.79,77.79,0,0,0-6,51.82Z" transform="translate(-688.46 -293.22)"/><path class="cls-6" d="M1075.7,721.36a95.09,95.09,0,0,1-15.26,48.29c-.75,1.15-1.16,3.18-3,2.72s-1.37-2.36-1.49-3.76a137.43,137.43,0,0,1,5.47-49.42,21.33,21.33,0,0,1,2.3-5.22c1.78-2.88,4.39-4.18,7.92-3.28s4.44,3.37,4.11,6.69A37.76,37.76,0,0,0,1075.7,721.36Zm-12.51,36.81h-.09c7.51-13.14,9.65-27.51,9.7-42.36a2,2,0,0,0-1.71-2.21c-1.42-.27-2.67-.19-2.84,1.71-3.17,1.1-3.46,4.19-4.25,6.66a101.77,101.77,0,0,0-4.5,43.79l3.28-6c.16-.52.3-1.06.44-1.6Z" transform="translate(-688.46 -293.22)"/><path class="cls-7" d="M1169.58,596.76c0,15.66-3.34,28.21-9.77,39.94-.67,1.25-1.09,3.19-2.78,3.06-2-.15-2-2.35-2.43-3.8-2-7.37-1.88-14.87-1.19-22.42.81-9,1-18,3.72-26.68a18.51,18.51,0,0,1,5.8-9.24c1.89-1.53,3.3-1.69,4,1.26C1168.64,585.5,1169.76,592.18,1169.58,596.76Zm-10.51,34.61,0,.07c7.93-16.17,9.57-33,5.26-51-3.28,3.73-4.31,7.63-4.89,11.71a111.6,111.6,0,0,0-2.75,39.21c.17.88.35,1.87.55,2.88a3.81,3.81,0,0,0,1.82-2.87Z" transform="translate(-688.46 -293.22)"/><path class="cls-8" d="M919.42,683.41c.34-13.87,2.71-26.38,8.8-38a25.19,25.19,0,0,1,3.08-4.83c3.55-4.11,8.82-3.17,11,1.86,1.86,4.37.88,8.76-.29,13a172.2,172.2,0,0,1-10.35,26.75,19.31,19.31,0,0,1-7.34,8.67c-2.66,1.62-4.44,1.57-4.61-2.15C919.61,686.66,919.52,684.6,919.42,683.41Zm5.32,3h0c.14,0,.35,0,.42-.12,8.66-11.54,12.09-25.25,15.15-39,.88-3.84-2.93-6-6.88-4.64-8.22,13.4-11.48,28-10.57,43.61.08.5.08,1.4.28,1.44,1,.24,1.37-.5,1.62-1.32Z" transform="translate(-688.46 -293.22)"/><path class="cls-4" d="M790.21,694.54c.09-13.65,3.09-25.52,10.09-36.19,2.35-3.55,5.32-8.38,9.5-7.62,3.86.72,3.73,6.51,4.44,10.25,3.18,15.83-4.63,33.55-18.27,42.22-4.52,2.88-5.2,2.52-5.52-3C790.36,698,790.27,695.74,790.21,694.54Zm4,6.14c14.48-8.87,21.48-28.3,16-44.1-1-3-2-3.33-3.91-.8-1.86.89-2.84,2.6-3.83,4.2A59.85,59.85,0,0,0,793.3,691c0,3.13-1.29,6.57.94,9.6Z" transform="translate(-688.46 -293.22)"/><path class="cls-4" d="M1085.84,648.62a83.5,83.5,0,0,1,5.33-30.88,22.94,22.94,0,0,1,1.63-3.61c1.54-2.66,3.34-5.08,6.93-4.23,3.29.78,4.67,3.24,5.1,6.44,2.28,17-2.38,32-12.62,45.51-1,1.26-2.08,3-3.83,2.61-2-.46-1.24-2.66-1.61-4.16C1085.75,656.1,1086,651.81,1085.84,648.62Zm3.55,7.71c.11,1,.21,2,.38,3.55A56.77,56.77,0,0,0,1101.05,637c1.53-6.48,2.78-13.06.73-19.66-.57-1.85-.64-4.83-4.11-3.83a5.26,5.26,0,0,0-2.48,3,69.52,69.52,0,0,0-5.75,39.82Z" transform="translate(-688.46 -293.22)"/><path class="cls-9" d="M997.55,763.09c.12,13.31-4.85,24.69-13.41,34.61-.73.89-1.34,2.2-2.72,1.95-1.61-.29-1.58-1.86-2-3.11a24.52,24.52,0,0,1-.59-10.54,101,101,0,0,1,6.09-25.28c1.55-3.87,3.74-7.38,7.47-9.59,2.18-1.29,3.65-1.43,4.28,1.78A73.84,73.84,0,0,1,997.55,763.09Zm-15.2,20.76c-.84,3.55-1.4,7.1-.13,10.78,1.91-.71,2.43-2.33,3.29-3.65,8.19-11,10.65-23.27,8.3-37.27a14.77,14.77,0,0,0-6.22,8.74C984.3,769.22,983.35,776.55,982.35,783.85Z" transform="translate(-688.46 -293.22)"/><path class="cls-10" d="M1165.14,385.36a57.68,57.68,0,0,1,40.82,17.7c16.21,16.4,24,36.22,21.92,59.45-4.44,0-8,2.6-12.11,3.65-9.13,2.36-18.4,3.55-27.76,4.7-9.11,1.12-17.94-.62-26.9-.48a52.94,52.94,0,0,1-10.51-1,196.56,196.56,0,0,1-32-8.34c-2.28-.84-3.5-.32-5.12,1.64-10.73,13-22.45,25-36.46,34.61-10.18,7-21.78,11-32.89,16.15-13.78,6.34-28.06,11-43.08,11.9-14.2.83-28.57,1.08-42.82-1.4-22.91-4-44.5-11.14-63.37-25.15-1.84-1.37-2.66-1.17-4.43.09-7.79,5.61-16,10.65-24.94,14.14q-9.5,3.72-18.73,8a107.15,107.15,0,0,1-38.31,9.76A186.77,186.77,0,0,1,764,528.45a165.78,165.78,0,0,1-49.42-17.16c-3.69-2-6.51-5.61-11-6,1.17-19.52,9.47-35.42,24.17-48,7-6,14.86-10.72,22.73-15.42,14.46-8.62,25.8-20,32.9-35.49,5.66-12.37,13.1-23.38,25.22-30.64,29.35-17.58,76.78-9.69,93.74,23.43a1.72,1.72,0,0,0,.4.45c22.29-40,56-62.55,102.05-57.81,49,5.05,77.4,36.34,89.84,83.27a67.76,67.76,0,0,1,28-29.71c10.38-5.91,21.43-9.84,33.58-9.92A9.71,9.71,0,0,0,1165.14,385.36ZM896.27,402.27a1.11,1.11,0,0,0,.14.29c0,.06.15.05.23.07l-.38-.36c0-1.91-1.49-2.8-2.61-3.91-8.07-8-17.6-13.72-27.63-18.79a40.53,40.53,0,0,0-17.75-4.83c-13.53-.28-25.68,4.29-37.4,10.45a47.3,47.3,0,0,0-10.64,7c12.22-2,24.4-3.72,36.56-5.48,12-1.73,23.59-1.42,35.07,3.23,8.53,3.43,16.21,8.33,24.37,12.33Zm177.41,7.1c1.39-5.91,1.14-11.06-1.26-16-6.71-13.73-18.51-21.88-31.68-28.29a99,99,0,0,0-33.37-9.28c-13.36-1.41-26.25.26-39.3,3.71,44.35-2.94,81.1,10.16,105.57,49.86Zm57.73-8.87c8.12-.38,15.08.88,22.08,1.87,6.8.89,13.79,1.44,20.23,4.17,13.77,5.83,23.87,16.37,34,26.86a99.1,99.1,0,0,1,11,12.89c0-3.48,0-3.47-.74-5-6.43-14.12-16.86-25.11-27.73-35.82-15.23-14.89-40.93-15.63-58.82-4.9Z" transform="translate(-688.46 -293.22)"/><path class="cls-11" d="M703.54,505.26c4.52.42,7.35,4.05,11,6a165.32,165.32,0,0,0,49.36,17.11,186.8,186.8,0,0,0,44.49,2.34A107,107,0,0,0,846.74,521q9.27-4.25,18.73-8a114,114,0,0,0,24.94-14.15c1.77-1.26,2.59-1.45,4.44-.09,18.86,14,40.45,21.17,63.36,25.15,14.25,2.49,28.59,2.24,42.82,1.4,15-.88,29.28-5.56,43.08-11.9,11.11-5.11,22.72-9.19,32.89-16.15,14-9.56,25.74-21.58,36.46-34.6,1.62-2,2.84-2.49,5.13-1.64a196,196,0,0,0,32,8.34,53.65,53.65,0,0,0,10.5,1c9-.13,17.75,1.61,26.9.49,9.36-1.15,18.63-2.34,27.76-4.7,4.09-1.05,7.7-3.69,12.11-3.65-.89,17.33-8.3,31.51-21,42.93-14.51,13-31.95,18.9-51.17,19.05a61.59,61.59,0,0,1-27.82-6.4c-2.34-1.16-2.9-1-3.71,1.72-12.52,42.4-39.8,69.67-83.58,78-28.94,5.52-56.1-1-80.28-18.29-3.08-2.2-3.93-2.15-5.54,1.51-16.68,37.91-66.62,58.27-107,27a69.32,69.32,0,0,1-20.85-26.63c-3.68-8.07-8.16-10.23-17-8.55A105.3,105.3,0,0,0,795,577.29C759.49,589.56,711.28,569,703.88,524,702.86,518,701.71,511.58,703.54,505.26Z" transform="translate(-688.46 -293.22)"/><path class="cls-12" d="M1165.14,385.36a9.71,9.71,0,0,1-8.93,0A33.38,33.38,0,0,1,1165.14,385.36Z" transform="translate(-688.46 -293.22)"/><path class="cls-13" d="M838.37,761.58a12.73,12.73,0,0,1-3.36,4.54c-.89-1.45-.82-3-.94-4.67-.19-2.57.82-5.26-.71-7.71.46-11.1,3.59-21.67,6.58-32.25,1.89-6.63,3.89-13.23,7-19.42a2.1,2.1,0,0,1,1.33,2.09c-.33,10.09,1,20.22-1.34,30.27-1.88,8.15-4.9,15.9-7.34,23.85v-.12C838.42,759,837.24,759.88,838.37,761.58Z" transform="translate(-688.46 -293.22)"/><path class="cls-14" d="M839.6,758.28c2.44-8,5.46-15.7,7.34-23.85,2.3-10,1-20.18,1.34-30.27a2.1,2.1,0,0,0-1.33-2.09,23.84,23.84,0,0,1,4-7.83c1.44-1.77,3.12-3.22,5.65-2.61s2.66,3,2.9,4.94c.77,6.83-.32,13.51-2.09,20.1a190,190,0,0,1-15.22,38.51C841.59,756.35,841.54,758.16,839.6,758.28Z" transform="translate(-688.46 -293.22)"/><path class="cls-12" d="M833.36,753.74c1.53,2.45.52,5.14.71,7.71.12,1.62.06,3.22.94,4.67-.65.89-1.47,2.66-1.77-.11A50.88,50.88,0,0,1,833.36,753.74Z" transform="translate(-688.46 -293.22)"/><path class="cls-14" d="M838.37,761.58c-1.13-1.7,0-2.57,1.25-3.42C840.38,759.73,839,760.5,838.37,761.58Z" transform="translate(-688.46 -293.22)"/><path class="cls-13" d="M1001,716c-.79,2-2.45,3.11-4.59,5.05a165.22,165.22,0,0,1,2.81-26.35c2.1-11.7,4.44-23.36,9.26-34.35a1.85,1.85,0,0,1,1.27,1.64c.16,14.54,1.07,29.13-4.37,43.13-1.07,2.78-3,5.41-2.6,8.69l0-.07-.95.94,0-.07Z" transform="translate(-688.46 -293.22)"/><path class="cls-15" d="M1002.75,713.83c-.44-3.28,1.53-5.91,2.6-8.69,5.44-14,4.53-28.59,4.37-43.13a1.85,1.85,0,0,0-1.27-1.64c1.62-2.92,2.85-7,7.1-6,3.87.89,4.24,5.06,4.68,8.33.89,6.91-1.33,13.41-3.34,19.91C1013.49,693.6,1010,704.54,1002.75,713.83Z" transform="translate(-688.46 -293.22)"/><path class="cls-15" d="M1001.85,714.7l.95-.94Z" transform="translate(-688.46 -293.22)"/><path class="cls-15" d="M1001,716l.93-1.39Z" transform="translate(-688.46 -293.22)"/><path class="cls-16" d="M901.23,755.36c1.18-2.79,3.28-4.36,6.21-3.55,2.66.71,2.58,3.39,2.66,5.53.32,17.83-4.65,34.23-13.7,49.48a1.44,1.44,0,0,1-.55.62c-.15.07-.44-.16-.66-.25a27.24,27.24,0,0,0,1.78-5c2-13.78,3.72-27.62,4.43-41.54C901.52,759,903.28,757,901.23,755.36Z" transform="translate(-688.46 -293.22)"/><path class="cls-17" d="M901.23,755.36c2,1.65.29,3.6.2,5.27-.73,13.93-2.42,27.76-4.44,41.54a26.93,26.93,0,0,1-1.77,5A77.7,77.7,0,0,1,901.23,755.36Z" transform="translate(-688.46 -293.22)"/><path class="cls-18" d="M1062.81,759.79l-3.29,6A101.93,101.93,0,0,1,1064,722c.8-2.48,1.09-5.56,4.25-6.66-4.43,13.95-.94,28.87-5.14,42.86h.09C1062.23,758.5,1062,759,1062.81,759.79Z" transform="translate(-688.46 -293.22)"/><path class="cls-19" d="M1063.13,758.19c4.2-14,.69-28.91,5.14-42.86.14-1.9,1.42-2,2.84-1.72a2,2,0,0,1,1.72,2.21C1072.77,730.68,1070.63,745,1063.13,758.19Z" transform="translate(-688.46 -293.22)"/><path class="cls-19" d="M1062.81,759.79c-.77-.76-.58-1.29.41-1.62C1063.08,758.71,1062.94,759.25,1062.81,759.79Z" transform="translate(-688.46 -293.22)"/><path class="cls-12" d="M1159.49,592.09c.58-4.08,1.61-8,4.89-11.72,4.31,18.06,2.66,34.86-5.26,51a9.14,9.14,0,0,1-.09-2.66c2.54-9.63,2.67-19.46,2.5-29.29C1161.48,596.85,1161.44,594.2,1159.49,592.09Z" transform="translate(-688.46 -293.22)"/><path class="cls-17" d="M1159.49,592.09c2,2.11,2,4.76,2,7.38.17,9.85,0,19.68-2.5,29.28a9.19,9.19,0,0,0,.09,2.67l0-.07h-2.33A111.39,111.39,0,0,1,1159.49,592.09Z" transform="translate(-688.46 -293.22)"/><path class="cls-12" d="M1156.74,631.29h2.33a3.8,3.8,0,0,1-1.78,2.84C1157.09,633.16,1156.91,632.22,1156.74,631.29Z" transform="translate(-688.46 -293.22)"/><path class="cls-20" d="M922.86,686.24c-.89-15.61,2.35-30.17,10.57-43.61,2.22,3.14,0,6.31,0,9.47.07,6.66-1.93,13-3.55,19.42-1.3,5.13-4.78,9.45-5.16,14.84h0Z" transform="translate(-688.46 -293.22)"/><path class="cls-16" d="M924.74,686.36c.38-5.39,3.86-9.71,5.16-14.84,1.61-6.42,3.61-12.75,3.55-19.42,0-3.16,2.21-6.33,0-9.47,3.95-1.34,7.73.8,6.87,4.64-3.05,13.72-6.48,27.39-15.14,39C925.09,686.33,924.85,686.33,924.74,686.36Z" transform="translate(-688.46 -293.22)"/><path class="cls-16" d="M922.86,686.24l1.9.12c-.25.82-.65,1.56-1.62,1.32C922.94,687.64,922.94,686.74,922.86,686.24Z" transform="translate(-688.46 -293.22)"/><path class="cls-18" d="M794.24,700.64c-2.23-3-1-6.47-.89-9.67a59.64,59.64,0,0,1,9.22-31.06c1-1.6,2-3.34,3.82-4.2,1.08,1.54,1.12,3.28,1.17,5.06.22,9.64-2.83,18.48-6.68,27.07C798.89,692.24,796.45,696.39,794.24,700.64Z" transform="translate(-688.46 -293.22)"/><path class="cls-15" d="M794.24,700.64c2.21-4.25,4.65-8.4,6.6-12.78,3.85-8.59,6.89-17.43,6.67-27.06a8.35,8.35,0,0,0-1.16-5.06c1.88-2.53,2.87-2.21,3.91.8C815.7,672.36,808.72,691.8,794.24,700.64Z" transform="translate(-688.46 -293.22)"/><path class="cls-16" d="M1097.72,613.59c3.47-1,3.55,2,4.1,3.82,2,6.61.8,13.19-.72,19.67a56.74,56.74,0,0,1-11.29,22.86c-.17-1.58-.27-2.59-.37-3.55,4-2.24,3.6-6.59,4.56-10.09,2.66-9.86.26-20.49,4.36-30.17C1098.63,615.43,1098,614.41,1097.72,613.59Z" transform="translate(-688.46 -293.22)"/><path class="cls-17" d="M1097.72,613.59c.24.82.88,1.84.64,2.45-4.1,9.76-1.68,20.35-4.36,30.17-1,3.5-.6,7.85-4.56,10.09a69.67,69.67,0,0,1,5.78-39.76A5.27,5.27,0,0,1,1097.72,613.59Z" transform="translate(-688.46 -293.22)"/><path class="cls-16" d="M987.57,762.46a14.76,14.76,0,0,1,6.21-8.73c2.39,14-.11,26.21-8.29,37.27.12-1.49.26-3,.39-4.44C989.22,778.69,989.28,770.64,987.57,762.46Z" transform="translate(-688.46 -293.22)"/><path class="cls-17" d="M987.57,762.46c1.71,8.18,1.65,16.23-1.66,24.07-2.27.54-2.57-1.53-3.55-2.66C983.35,776.55,984.3,769.22,987.57,762.46Z" transform="translate(-688.46 -293.22)"/><path class="cls-10" d="M982.35,783.85c1,1.15,1.29,3.22,3.55,2.66-.13,1.47-.27,3-.39,4.44-.89,1.32-1.39,2.94-3.29,3.65C981,791,981.51,787.41,982.35,783.85Z" transform="translate(-688.46 -293.22)"/><path class="cls-21" d="M1073.64,409.4c-24.47-39.7-61.23-52.8-105.6-49.86,13.06-3.45,25.94-5.12,39.31-3.71a99.31,99.31,0,0,1,33.37,9.3c13.17,6.42,25,14.57,31.68,28.29C1074.81,398.34,1075,403.49,1073.64,409.4Z" transform="translate(-688.46 -293.22)"/><path class="cls-21" d="M1131.37,400.54c17.89-10.73,43.59-10,58.78,4.94,10.89,10.71,21.3,21.71,27.73,35.83.71,1.56.74,1.54.74,5a98.53,98.53,0,0,0-11-12.9c-10.1-10.48-20.19-21-34-26.86-6.44-2.72-13.42-3.24-20.23-4.17C1146.48,401.45,1139.49,400.17,1131.37,400.54Z" transform="translate(-688.46 -293.22)"/><path class="cls-21" d="M896.23,402.27c-8.16-4-15.84-8.87-24.34-12.33-11.48-4.65-23.07-5-35.07-3.23-12.17,1.77-24.34,3.44-36.57,5.48a47.37,47.37,0,0,1,10.65-7c11.71-6.16,23.86-10.73,37.39-10.45A40.75,40.75,0,0,1,866,379.57c10,5.07,19.57,10.84,27.63,18.79,1.12,1.11,2.67,2,2.61,3.91Z" transform="translate(-688.46 -293.22)"/><path class="cls-21" d="M896.22,402.27l.38.36c-.08,0-.18,0-.23-.07a1.11,1.11,0,0,1-.14-.29Z" transform="translate(-688.46 -293.22)"/></svg>