<svg id="Layer_3" data-name="Layer 3" xmlns="http://www.w3.org/2000/svg" viewBox="0 0 554.45 554.45"><defs><style>.cls-1{fill:none;}.cls-2{fill:#fff;}</style></defs><title>darkskyapi</title><rect class="cls-1" width="554.45" height="554.45"/><path class="cls-2" d="M894.31,412.08s-7.61,3.14-40.26,46.48-32.93,141.5-32.93,141.5l26.5,156.38,111,80.25,27.28,9.73,26.84-15,53.91-124.5L1034,394l-33.93-51L915,384.14Z" transform="translate(-688.46 -293.22)"/><path d="M886.49,422.05a371.34,371.34,0,0,0-23.58,149.88L892,560.51c-5.93,49.35.83,95.75,13.63,142.37L928,690.8C933,745,950.19,794,981.76,838.1c-16.56-70-14.59-139.69,2.77-210.74l-29.28,14.11c-1.33-55.12,15.19-104.41,41.49-153.09L954.67,501c15.21-45.3,41-82,72.76-116.85,8.71,13,16.81,25.49,25.25,37.76,21.56,31.31,43.49,62.36,64.82,93.81,19.7,29,36.2,60.15,42.07,94.84,3.64,21.59,1.68,44.29,1.45,66.35-.19,19.87-7.7,38.11-15.65,55.84a192.69,192.69,0,0,1-53.15,69.56c-18.69,15.52-39.43,28.12-63,35.12-66.33,19.76-128.23,11.83-183.53-31.5-40.86-32-66.64-73.34-73.86-125.51a219,219,0,0,1,19.39-126.33c17.33-36.7,40.84-69.32,66.74-100.33,7.89-9.46,15.4-19.26,23.1-28.73C881.91,424.17,883.26,423.82,886.49,422.05Z" transform="translate(-688.46 -293.22)"/><path d="M966.47,293.22,1023,376.79C976.6,380,934.28,391.3,894.41,412.08,921.52,375,950.55,339.74,966.47,293.22Z" transform="translate(-688.46 -293.22)"/></svg>