<svg id="Layer_5" data-name="Layer 5" xmlns="http://www.w3.org/2000/svg" viewBox="0 0 511.99 512"><defs><style>.cls-1{fill:#010101;}.cls-2{fill:#fcfcfc;}.cls-3{fill:#020202;}.cls-4{fill:#030303;}.cls-5{fill:#fbfbfb;}</style></defs><title>ml</title><path class="cls-1" d="M666,551V541a114.88,114.88,0,0,1,14.17-25.41q16.23-22.74,32.37-45.54c11.08-15.58,16.44-32.79,15.49-52-1.55-31.13,10-56.61,33.12-77.38,29.4-26.35,62.09-46.12,101.47-53.36,3.8-.7,7.86-.21,11.38-2.31h33c1.23,2.06,3.44,1.5,5.23,1.77a168.43,168.43,0,0,1,19.89,4.28c2.22.62,4.5,1.72,4.36,4.12-.42,6.9.93,13.86-.77,20.7-6,0-12,0-18-.15-4.24-.08-5.94,1.9-5.87,6.08.14,8.16-.2,16.34.13,24.5.16,4.17-1.11,6.39-5.15,7.73a182.41,182.41,0,0,0-17.6,7c-3.17,1.45-5.19.79-7.41-1.62C876,353,869.78,347,864,340.54c-1.89-2.08-2.84-1.8-4.62,0-9.7,9.86-19.43,19.69-29.37,29.32-2.34,2.26-2,3.49,0,5.52,5.4,5.43,10.54,11.12,16,16.52,3.51,3.48,4.47,6.85,2.07,11.55a105.72,105.72,0,0,0-6.21,15.74c-1.2,3.72-3.3,4.86-7,4.76-8.16-.22-16.34.14-24.49-.2-4.3-.19-5.54,1.4-5.5,5.44q.23,19.23,0,38.48c-.06,4,1.12,5.69,5.41,5.55,8.32-.29,16.66,0,25-.14,3.29-.06,5.25.94,6.35,4.21,2.28,6.77,4.73,13.49,7.42,20.11,1.08,2.67.39,4.17-1.51,6-6,5.78-11.71,11.87-17.75,17.6-2.24,2.13-2.22,3.28,0,5.43q15.25,14.79,30.15,29.94c2.23,2.27,3.5,2.06,5.53-.09,5.73-6,11.71-11.85,17.45-17.88,2.28-2.39,4.43-2.91,7.51-1.5,5.44,2.5,11,4.85,16.62,6.82,4.22,1.46,6.17,3.85,6.06,8.38-.19,8,.25,16-.12,24-.2,4.34,1.26,5.32,5.31,5.08,6.24-.37,12.53-.15,18.8-.18.27.19.79.4.77.57-1,13.47,0,26.95-.49,40.41-.14,3.95,1.2,5.19,5.15,5.15q27-.25,54,0a8.77,8.77,0,0,0,8.22-4.48c3.6-5.59,7.51-11,11-16.66a9,9,0,0,1,8.61-4.69c11.16.2,22.33-.07,33.49.15,3.93.07,6.38-1.25,8.66-4.5a26.88,26.88,0,0,1,35.07-8.32,28.1,28.1,0,0,1,14.36,27.58,27.48,27.48,0,0,1-20.14,23.58c-11.44,3-22.3-.65-29-10.37-2.51-3.62-5.25-4.95-9.52-4.77-7,.3-14,.13-21,.07a10.1,10.1,0,0,0-8.65,4.1c-3.46,4.48-7.3,8.71-10.39,13.42-3,4.54-6.58,6.21-12,6.11-20.15-.37-40.31-.26-60.47-.35-6.79,0-7.26.42-7.26,7.34,0,6,.18,12-.06,18-.17,4,1.5,5.17,5.29,5.15q62.46-.26,124.94-.27a6.83,6.83,0,0,0,6.51-3.6,24.57,24.57,0,0,1,14.25-11.12,28.13,28.13,0,0,1,34,15.61,27.45,27.45,0,0,1-11.77,35c-13,7.28-27,4-36-8.55-1.82-2.55-3.77-3.77-7-3.76q-62.47.12-125,0c-4.32,0-5.46,1.73-5.34,5.68.21,7,.06,14,.06,21,0,6.66,0,6.7,6.7,6.69,34.82,0,69.65,0,104.47-.19,4.77,0,8.22,1.4,11,5.34,3.28,4.6,7.18,8.76,10.55,13.31,2.22,3,4.9,4.06,8.55,4q20.74-.2,41.49,0c3.47,0,5.82-.94,7.87-4a26.59,26.59,0,0,1,31.59-10.56A27.82,27.82,0,0,1,1178,770.57,27.2,27.2,0,0,1,1157,796c-.76.18-1.71-.11-2,1h-11c-7.09-3.08-13.27-7.23-17.4-14-1.4-2.29-4-2.09-6.32-2.08-17.5.07-35,.1-52.49.22a9.45,9.45,0,0,1-8.19-3.86c-3.55-4.61-7.44-9-10.9-13.66-2.85-3.85-6.31-5.28-11.12-5.25-28.16.18-56.32.1-84.49.08-4,0-8-.17-12-.24-3.53,0-5.2,1.4-4.75,5.21.35,3,0,6,.17,9,.15,2.52-.7,3.48-3.35,3.61-5.15.25-10.28.92-15.41,1.42-35.8,3.49-71.61,6.92-107.39,10.52-4,.4-5.32-.39-5.28-4.76.23-24.33.06-48.66.18-73,0-3.14-.66-4.31-4-4.4a264.3,264.3,0,0,1-29.31-2.85c-16.16-2.27-32.38-4.19-48.46-6.9-18.2-3.08-29.74-17.86-24.77-34.82,4.18-14.23,2.35-26.18-4.54-38.38-1.38-2.43-2.09-5.24-3.15-7.86a30.2,30.2,0,0,1-1.13-19.6c1.52-5.61,3.39-11.13,5.29-16.62.67-1.92.71-3-1.51-3.69C680.92,571.11,670.65,564.27,666,551Z" transform="translate(-666 -285)"/><path class="cls-2" d="M935.71,315.87l1.22.11-.06,72.69c-1.38,2.37-3.73,2.31-6.07,2.6C901.22,394.86,879.91,419.14,880,449c.12,29.44,21.8,53.39,51.35,56.69,2,.22,4,.11,5.35,2.05,0,22.32,0,44.64.2,67,0,2.08-2.17,4.27.1,6.3h0c-6.27,0-12.56-.19-18.8.18-4,.24-5.51-.74-5.31-5.08.37-8-.07-16,.12-24,.11-4.53-1.84-6.92-6.06-8.38-5.65-2-11.18-4.32-16.62-6.82-3.08-1.41-5.23-.89-7.51,1.5-5.74,6-11.72,11.83-17.45,17.88-2,2.15-3.3,2.36-5.53.09Q845,541.2,829.73,526.43c-2.22-2.15-2.24-3.3,0-5.43,6-5.73,11.75-11.82,17.75-17.6,1.9-1.83,2.59-3.33,1.51-6-2.69-6.62-5.14-13.34-7.42-20.11-1.1-3.27-3.06-4.27-6.35-4.21-8.33.16-16.67-.15-25,.14-4.29.14-5.47-1.54-5.41-5.55q.25-19.25,0-38.48c0-4,1.2-5.63,5.5-5.44,8.15.34,16.33,0,24.49.2,3.72.1,5.82-1,7-4.76A105.72,105.72,0,0,1,848,403.45c2.4-4.7,1.44-8.07-2.07-11.55-5.44-5.4-10.58-11.09-16-16.52-2-2-2.37-3.26,0-5.52,9.94-9.63,19.67-19.46,29.37-29.32,1.78-1.8,2.73-2.08,4.62,0,5.83,6.41,12,12.5,17.88,18.85,2.22,2.41,4.24,3.07,7.41,1.62a182.41,182.41,0,0,1,17.6-7c4-1.34,5.31-3.56,5.15-7.73-.33-8.16,0-16.34-.13-24.5-.07-4.18,1.63-6.16,5.87-6.08C923.72,315.84,929.72,315.83,935.71,315.87Z" transform="translate(-666 -285)"/><path class="cls-1" d="M936.87,388.67l.06-72.69c6.32,0,12.65.34,19,.07,4.11-.17,5.2,1.64,5.16,5.29-.09,8.48.14,17-.11,25.45-.11,3.84,1.37,5.89,4.88,7a113.38,113.38,0,0,1,18,7.22c3.26,1.65,5.38.94,7.82-1.63,6.3-6.63,13-12.92,19.34-19.48,1.93-2,3.08-2.05,5.06,0q14.49,15.14,29.32,30c2.46,2.46,1.84,3.89-.36,5.95-6.42,6-12.62,12.32-19,18.36-2.15,2-2.46,3.64-1.17,6.45,2.84,6.17,5.22,12.57,7.56,19,1.12,3.09,2.82,4.45,6.24,4.37,8.65-.2,17.31.08,26-.14,3.33-.08,4.59.62,4.52,4.3-.29,14-.21,27.95-.27,41.92l-.8,1.12c-9.07,1.63-18.23.65-27.32.57-5,0-7.48,1.42-8.94,6.27a131.55,131.55,0,0,1-6.69,16.63c-1.49,3.24-.87,5.43,1.54,7.93,6.23,6.46,12.14,13.24,18.3,19.77,1.82,1.92,2.09,3.1,0,5.15q-14.82,14.46-29.29,29.3c-2.09,2.15-3.18,1.75-5.07-.13-6.26-6.2-12.81-12.1-19-18.34-2.52-2.53-4.78-2.87-8-1.45-6.07,2.69-12.27,5.11-18.49,7.43-2.9,1.08-4.12,2.72-4,5.91.18,8.48-.08,17,.13,25.46.09,3.82-1.14,5.48-5.11,5.37-6.32-.18-12.64,0-19,0-2.27-2-.08-4.22-.1-6.3-.2-22.31-.17-44.63-.2-67,.11-.64.23-1.28.34-1.91,2.1.86,4.28.54,6.4.29a57.92,57.92,0,0,0,51.23-60.3c-1.17-29-25-55.47-57.42-55.29Z" transform="translate(-666 -285)"/><path class="cls-3" d="M1068,471.14l.8-1.12C1069,470.71,1068.92,471.24,1068,471.14Z" transform="translate(-666 -285)"/><path class="cls-4" d="M937.06,505.85c-.11.63-.23,1.27-.34,1.91-1.3-1.94-3.38-1.83-5.35-2.05-29.55-3.3-51.23-27.25-51.35-56.69-.11-29.88,21.2-54.16,50.78-57.75,2.34-.29,4.69-.23,6.07-2.6l.4,1.88q0,8,0,16Q937.13,456.19,937.06,505.85Z" transform="translate(-666 -285)"/><path class="cls-5" d="M937.06,505.85q.08-49.67.16-99.33,0-8,0-16c32.39-.18,56.25,26.3,57.42,55.29a57.92,57.92,0,0,1-51.23,60.3C941.34,506.39,939.16,506.71,937.06,505.85Z" transform="translate(-666 -285)"/></svg>