<svg id="Layer_4" data-name="Layer 4" xmlns="http://www.w3.org/2000/svg" viewBox="0 0 485.38 431.51"><defs><style>.cls-1{fill:#fefefe;}.cls-2{fill:#3b87c2;}.cls-3{fill:#56aced;}</style></defs><title>shirt</title><path class="cls-1" d="M719.89,325.51c-1.66,0-3.32-.09-5,0-30,2-59.16,8.63-87.73,17.8C612.48,348.05,598,353.41,585,362.15c-10.75,5.72-14.66,12.63-13.66,23.57a433.09,433.09,0,0,0,7.75,51.19c4.27,20,9.13,39.78,16.89,58.77,2.28,5.58,5.24,10.42,11.1,12.75s11.67,3.81,17.95,3.38a90.35,90.35,0,0,0,21.42-.91c3.57-.49,4.57.52,4.42,4.11-.66,16.31-1,32.64-1.6,49-2,50.91-2.79,101.86-12.73,152.17-4.34,21.92,6.86,35.43,29,39a126.8,126.8,0,0,0,19.91,1.47q128.5.12,257,0c8.3,0,16.64-.42,24.8-2.44,16.53-4.09,24.5-14.15,24.67-31.07.1-8.94-2.44-17.43-4-26.11-3.76-21.19-5-42.65-6.34-64.1-2.48-39.41-3.32-78.89-4.54-118.36-.1-3.16.77-4,3.91-3.64,7.27.93,14.57,1.7,21.92.95,16.61.66,25-4.87,30.74-20.28.82-2.18,1.64-4.35,2.36-6.56a470.46,470.46,0,0,0,20.3-96.28c1.35-12.53-2.38-21-13.38-26.53a72.51,72.51,0,0,0-13-7.37c-24.53-11.53-50.49-18.5-76.94-23.82-14.83-3-29.74-5.46-44.94-5.46-3.81-.11-7.63-.19-11.44-.36a3.23,3.23,0,0,0-3.65,2.57,39,39,0,0,1-18.69,21.95c-39.91,22-80.22,22-120.24.26A39.58,39.58,0,0,1,735,327.7a3.22,3.22,0,0,0-3.65-2.55C727.52,325.32,723.7,325.4,719.89,325.51Z" transform="translate(-571.22 -325.14)"/><path class="cls-2" d="M1002.94,511.81c-7.35.75-14.65,0-21.92-.95-3.14-.39-4,.48-3.91,3.64,1.22,39.47,2.06,79,4.54,118.36,1.35,21.45,2.58,42.91,6.34,64.1,1.54,8.68,4.08,17.17,4,26.11-.17,16.92-8.14,27-24.67,31.07-8.16,2-16.5,2.43-24.8,2.44q-128.5.15-257,0a126.8,126.8,0,0,1-19.91-1.47c-22.16-3.56-33.36-17.07-29-39,9.94-50.31,10.77-101.26,12.73-152.17.62-16.31.94-32.64,1.6-49,.15-3.59-.85-4.6-4.42-4.11a90.35,90.35,0,0,1-21.42.91,9.75,9.75,0,0,0-.28-2c-8-21.66-14-43.9-19.73-66.19-7-27.09-13.37-54.33-20-81.51,13-8.74,27.45-14.1,42.17-18.82,28.57-9.17,57.68-15.83,87.73-17.8,1.64-.11,3.3,0,5,0a45.51,45.51,0,0,0,2.89,17c6.46,16.88,18.77,28.27,34.34,36.47,21.39,11.27,44.13,15.34,68.26,13.15,20.82-1.88,40-7.92,56.81-20.33,15.55-11.46,25.77-26.14,25.92-46.33,15.2,0,30.11,2.47,44.94,5.46,26.45,5.32,52.41,12.29,76.94,23.82a72.51,72.51,0,0,1,13,7.37c-.26.95-.58,1.9-.79,2.87-8.26,36.5-17.15,72.85-27.61,108.79C1010.86,486.53,1006.82,499.15,1002.94,511.81Z" transform="translate(-571.22 -325.14)"/><path class="cls-3" d="M908.11,325.51c-.15,20.19-10.37,34.87-25.92,46.33-16.85,12.41-36,18.45-56.81,20.33-24.13,2.19-46.87-1.88-68.26-13.15-15.57-8.2-27.88-19.59-34.34-36.47a45.51,45.51,0,0,1-2.89-17c3.81-.11,7.63-.19,11.44-.36A3.22,3.22,0,0,1,735,327.7a39.58,39.58,0,0,0,19.11,22.23c40,21.77,80.33,21.74,120.24-.26A39,39,0,0,0,893,327.72a3.23,3.23,0,0,1,3.65-2.57C900.48,325.32,904.3,325.4,908.11,325.51Z" transform="translate(-571.22 -325.14)"/><path class="cls-3" d="M1002.94,511.81c3.88-12.66,7.92-25.28,11.62-38,10.46-35.94,19.35-72.29,27.61-108.79.21-1,.53-1.92.79-2.87,11,5.56,14.73,14,13.38,26.53A470.46,470.46,0,0,1,1036,485c-.72,2.21-1.54,4.38-2.36,6.56C1027.93,506.94,1019.55,512.47,1002.94,511.81Z" transform="translate(-571.22 -325.14)"/><path class="cls-3" d="M585,362.15c6.65,27.18,13,54.42,20,81.51,5.75,22.29,11.77,44.53,19.73,66.19a9.75,9.75,0,0,1,.28,2c-6.28.43-12.2-1.08-17.95-3.38s-8.82-7.17-11.1-12.75c-7.76-19-12.62-38.8-16.89-58.77a433.09,433.09,0,0,1-7.75-51.19C570.37,374.78,574.28,367.87,585,362.15Z" transform="translate(-571.22 -325.14)"/></svg>