<svg xmlns="http://www.w3.org/2000/svg" viewBox="0 0 512 448"><defs><style>.cls-1{fill:#fff;}</style></defs><title>cam</title><g id="Layer_1" data-name="Layer 1"><path class="cls-1" d="M512,144V432a48,48,0,0,1-48,48H48A48,48,0,0,1,0,432V144A48,48,0,0,1,48,96h88l12.3-32.9A47.93,47.93,0,0,1,193.2,32H318.7a47.93,47.93,0,0,1,44.9,31.1L376,96h88A48,48,0,0,1,512,144ZM376,288A120,120,0,1,0,256,408,120.1,120.1,0,0,0,376,288Zm-32,0a88,88,0,1,1-88-88A88.13,88.13,0,0,1,344,288Z" transform="translate(0 -32)"/></g><g id="Layer_2" data-name="Layer 2"><circle class="cls-1" cx="256" cy="256" r="88"/></g></svg>