<svg id="Layer_2" data-name="Layer 2" xmlns="http://www.w3.org/2000/svg" viewBox="0 0 439 439"><defs><style>.cls-1{fill:#fff;}</style></defs><title>currentlocation</title><circle class="cls-1" cx="219.5" cy="220.5" r="74.5"/><path class="cls-1" d="M683,223A161,161,0,1,0,844,384,161,161,0,0,0,683,223Zm.5,270A108.5,108.5,0,1,1,792,384.5,108.5,108.5,0,0,1,683.5,493Z" transform="translate(-463.5 -164)"/><rect class="cls-1" x="191.5" width="57" height="85" rx="20"/><rect class="cls-1" x="190.5" y="354" width="57" height="85" rx="20"/><rect class="cls-1" x="477.5" y="340.5" width="57" height="85" rx="20" transform="translate(-340.5 725) rotate(-90)"/><rect class="cls-1" x="831.5" y="341.5" width="57" height="85" rx="20" transform="translate(12.5 1080) rotate(-90)"/></svg>