<svg id="Layer_2" data-name="Layer 2" xmlns="http://www.w3.org/2000/svg" viewBox="0 0 98.87 97.28"><defs><style>.cls-1{fill:#fff;}</style></defs><title>larrow</title><rect class="cls-1" x="9.87" y="39.41" width="89" height="19" rx="5"/><path class="cls-1" d="M504.89,369.11l-43.25,43.25a5.05,5.05,0,0,1-7.14.07l-5.93-5.93a4.93,4.93,0,0,1-1.42-3,5.14,5.14,0,0,1,1.49-4.12l43.25-43.25A5,5,0,0,1,499,356L505,362A5,5,0,0,1,504.89,369.11Z" transform="translate(-447.13 -354.59)"/><path class="cls-1" d="M504.89,437.36l-43.25-43.25a5,5,0,0,0-7.14-.07L448.57,400a5,5,0,0,0-1.42,3,5.16,5.16,0,0,0,1.49,4.13l43.25,43.25a5.06,5.06,0,0,0,7.15.07L505,444.5A5,5,0,0,0,504.89,437.36Z" transform="translate(-447.13 -354.59)"/></svg>