<svg xmlns="http://www.w3.org/2000/svg" viewBox="0 0 522.38 412.71"><defs><style>.cls-1,.cls-6{fill:#fff;}.cls-1,.cls-2,.cls-4,.cls-6{stroke:#fff;}.cls-1,.cls-2,.cls-3,.cls-4,.cls-5,.cls-6{stroke-miterlimit:10;}.cls-2,.cls-5{fill:#29abe2;}.cls-2{stroke-width:30px;}.cls-3,.cls-4{fill:#eff77c;}.cls-3{stroke:#eff77c;stroke-width:2px;}.cls-4{stroke-width:0.25px;}.cls-5{stroke:#29abe2;}.cls-5,.cls-6{stroke-width:3px;}.cls-6{font-size:50px;font-family:CenturyGothic, Century Gothic;}.cls-7{fill:#999;}</style></defs><title>logo</title><g id="Layer_1" data-name="Layer 1"><path class="cls-1" d="M901.92,397.24A69.47,69.47,0,0,1,908.64,381q3.95-6.61,10.32-15.23,4.63-6.39,7.31-10.52a42.36,42.36,0,0,0,4.4-9.18,33.25,33.25,0,0,0,1.74-10.87V335q0-10.11-5.16-15.7t-14.44-5.58q-9.39,0-14.55,6.92T893,340.27v.12H869v-.12q.46-15.34,5.8-26.22a38.33,38.33,0,0,1,15-16.57q9.63-5.69,22.84-5.69,13.8,0,23.66,5.11a34.73,34.73,0,0,1,15,14.83q5.16,9.7,5.16,23.43v.11a48.12,48.12,0,0,1-2.14,14.88,50.89,50.89,0,0,1-5.22,11.51q-3.07,4.89-8.41,11.86a160.87,160.87,0,0,0-9.39,13.2,57.41,57.41,0,0,0-6,13.84,64.86,64.86,0,0,0-2.43,18.66H899.13A79.25,79.25,0,0,1,901.92,397.24Zm-3.37,40.46h24.82v24.88H898.55Z" transform="translate(-632.63 -291.29)"/><path class="cls-2" d="M1140,605.18c0,46.29-31.45,83.82-70.24,83.82H717.86c-38.79,0-70.23-37.53-70.23-83.82s31.44-83.82,70.23-83.82a59.36,59.36,0,0,1,14,1.68c16.07-30.23,44.36-50.29,76.57-50.29a77,77,0,0,1,20.91,2.89C849.29,447.71,878.94,430,912.07,430c32,0,60.74,16.51,80.6,42.78,30.71.91,57.63,20,73.45,48.69,1.2-.07,2.42-.11,3.64-.11C1108.55,521.36,1140,558.89,1140,605.18Z" transform="translate(-632.63 -291.29)"/></g><g id="text"><circle class="cls-3" cx="433.15" cy="307.35" r="20"/><rect class="cls-4" x="431.87" y="269.21" width="3" height="11" rx="1.5"/><rect class="cls-4" x="1054.5" y="562.5" width="3" height="11" rx="1.5" transform="translate(-770.1 161.05) rotate(-22.74)"/><rect class="cls-4" x="1045.5" y="566.5" width="3" height="11" rx="1.5" transform="translate(-755.84 513.06) rotate(-39.88)"/><rect class="cls-4" x="1039.5" y="574.5" width="3" height="11" rx="1.5" transform="translate(-588.29 941.96) rotate(-62.37)"/><rect class="cls-4" x="1035.5" y="582.5" width="3" height="11" rx="1.5" transform="translate(-426.24 1151.81) rotate(-75.39)"/><rect class="cls-4" x="1074.5" y="561.5" width="3" height="11" rx="1.5" transform="translate(-362.24 -635.47) rotate(20.73)"/><rect class="cls-4" x="1084.5" y="566.5" width="3" height="11" rx="1.5" transform="translate(-29.43 -847.77) rotate(39.06)"/><rect class="cls-4" x="1091.5" y="574.5" width="3" height="11" rx="1.5" transform="translate(291.19 -937.02) rotate(54.19)"/><rect class="cls-4" x="1095.5" y="584.5" width="3" height="11" rx="1.5" transform="translate(766.81 -909.61) rotate(75.78)"/><rect class="cls-4" x="1096.5" y="595.5" width="3" height="11" rx="1.5" transform="translate(1364.78 -560.85) rotate(107.24)"/><rect class="cls-4" x="1092.5" y="604.5" width="3" height="11" rx="1.5" transform="translate(1536.65 -323.72) rotate(120)"/><rect class="cls-4" x="1087.5" y="611.5" width="3" height="11" rx="1.5" transform="translate(1621.69 -131.07) rotate(129.06)"/><circle class="cls-5" cx="404.88" cy="329.21" r="20"/><text class="cls-6" transform="translate(67.44 338.99)">Weather Closet</text><polygon class="cls-7" points="431.88 328.21 431.75 317.21 431.88 317.34 426.88 317.36 426.73 317.36 426.73 317.21 426.7 311.21 426.7 311.04 426.88 311.04 431.88 311.02 431.68 311.21 431.64 301.21 431.64 300.98 431.88 300.98 437.88 300.97 438.11 300.97 438.11 301.21 438.07 311.21 437.88 311.02 442.88 311.04 443.05 311.04 443.05 311.21 443.02 317.21 443.02 317.36 442.88 317.36 437.88 317.34 438 317.21 437.88 328.21 437.75 317.21 437.75 317.08 437.88 317.08 442.88 317.06 442.73 317.21 442.7 311.21 442.88 311.39 437.88 311.41 437.68 311.41 437.68 311.21 437.64 301.21 437.88 301.45 431.88 301.45 432.11 301.21 432.07 311.21 432.07 311.41 431.88 311.41 426.88 311.39 427.05 311.21 427.02 317.21 426.88 317.06 431.88 317.08 432 317.08 432 317.21 431.88 328.21"/></g></svg>