<svg id="Layer_1" data-name="Layer 1" xmlns="http://www.w3.org/2000/svg" viewBox="0 0 522.38 412.71"><defs><style>.cls-1,.cls-6{fill:#fff;}.cls-1,.cls-2,.cls-4,.cls-6{stroke:#fff;}.cls-1,.cls-2,.cls-3,.cls-4,.cls-5,.cls-6{stroke-miterlimit:10;}.cls-2,.cls-5{fill:#29abe2;}.cls-2{stroke-width:30px;}.cls-3{fill:#ffd764;stroke:#ffd764;stroke-width:2px;}.cls-4{fill:#eff77c;stroke-width:0.25px;}.cls-5{stroke:#29abe2;}.cls-5,.cls-6{stroke-width:3px;}.cls-7{fill:#999;}</style></defs><title>logo</title><path class="cls-1" d="M269.29,106A69.24,69.24,0,0,1,276,89.68a180.05,180.05,0,0,1,10.32-15.23c3.09-4.27,5.52-7.77,7.3-10.53a41.71,41.71,0,0,0,4.41-9.18,33.21,33.21,0,0,0,1.74-10.87v-.12q0-10.11-5.16-15.69t-14.44-5.59q-9.39,0-14.55,6.92T260.36,49v.12h-24V49q.46-15.34,5.8-26.21a38.19,38.19,0,0,1,15-16.57Q266.73.5,280,.5q13.8,0,23.65,5.12a34.73,34.73,0,0,1,15,14.82q5.16,9.7,5.16,23.43V44a48.14,48.14,0,0,1-2.15,14.89,51.42,51.42,0,0,1-5.21,11.51q-3.07,4.88-8.41,11.86a158.35,158.35,0,0,0-9.39,13.19,57,57,0,0,0-6,13.84,64.65,64.65,0,0,0-2.44,18.66H266.51A79.19,79.19,0,0,1,269.29,106Zm-3.36,40.47h24.81V171.3H265.93Z"/><path class="cls-2" d="M507.38,313.89c0,46.3-31.45,83.82-70.24,83.82H85.24C46.45,397.71,15,360.19,15,313.89s31.45-83.82,70.24-83.82a59.85,59.85,0,0,1,14,1.68c16.06-30.22,44.36-50.29,76.57-50.29a77,77,0,0,1,20.91,2.89c19.9-27.93,49.56-45.64,82.69-45.64,32,0,60.74,16.51,80.59,42.78,30.71.91,57.63,20,73.45,48.69,1.21-.07,2.42-.11,3.65-.11C475.93,230.07,507.38,267.6,507.38,313.89Z"/><circle class="cls-3" cx="433.15" cy="307.35" r="20"/><path class="cls-4" d="M433.38,269.21h0a1.5,1.5,0,0,1,1.5,1.5v8a1.5,1.5,0,0,1-1.5,1.5h0a1.5,1.5,0,0,1-1.5-1.5v-8A1.5,1.5,0,0,1,433.38,269.21Z"/><path class="cls-4" d="M421.25,271.64h0a1.5,1.5,0,0,1,2,.8l3.09,7.38a1.5,1.5,0,0,1-.8,2h0a1.48,1.48,0,0,1-2-.8l-3.09-7.38A1.5,1.5,0,0,1,421.25,271.64Z"/><path class="cls-4" d="M410.85,276.49h0a1.5,1.5,0,0,1,2.11.19l5.13,6.14a1.49,1.49,0,0,1-.19,2.11h0a1.49,1.49,0,0,1-2.11-.19l-5.13-6.14A1.49,1.49,0,0,1,410.85,276.49Z"/><path class="cls-4" d="M403.5,286.16h0a1.5,1.5,0,0,1,2-.63l7.08,3.71a1.5,1.5,0,0,1,.64,2h0a1.51,1.51,0,0,1-2,.64l-7.08-3.71A1.51,1.51,0,0,1,403.5,286.16Z"/><path class="cls-4" d="M399.05,295.32h0a1.5,1.5,0,0,1,1.83-1.07l7.74,2a1.5,1.5,0,0,1,1.08,1.83h0a1.5,1.5,0,0,1-1.83,1.07l-7.74-2A1.49,1.49,0,0,1,399.05,295.32Z"/><path class="cls-4" d="M445.32,270.57h0a1.49,1.49,0,0,1,.87,1.93L443.36,280a1.5,1.5,0,0,1-1.93.88h0a1.5,1.5,0,0,1-.87-1.94l2.83-7.48A1.5,1.5,0,0,1,445.32,270.57Z"/><path class="cls-4" d="M456.84,276.44h0a1.51,1.51,0,0,1,.22,2.11l-5,6.21a1.5,1.5,0,0,1-2.11.22h0a1.5,1.5,0,0,1-.22-2.11l5-6.21A1.51,1.51,0,0,1,456.84,276.44Z"/><path class="cls-4" d="M464.84,285.49h0a1.51,1.51,0,0,1-.34,2.1L458,292.27a1.51,1.51,0,0,1-2.1-.34h0a1.5,1.5,0,0,1,.34-2.09l6.49-4.68A1.5,1.5,0,0,1,464.84,285.49Z"/><path class="cls-4" d="M469.71,297.36h0a1.51,1.51,0,0,1-1.09,1.82l-7.75,2a1.51,1.51,0,0,1-1.83-1.09h0a1.51,1.51,0,0,1,1.09-1.82l7.75-2A1.5,1.5,0,0,1,469.71,297.36Z"/><path class="cls-4" d="M470.63,311.34h0a1.5,1.5,0,0,1-1.88,1L461.11,310a1.51,1.51,0,0,1-1-1.88h0a1.51,1.51,0,0,1,1.88-1l7.64,2.38A1.5,1.5,0,0,1,470.63,311.34Z"/><path class="cls-4" d="M466.14,321.46h0a1.49,1.49,0,0,1-2.05.55l-6.93-4a1.5,1.5,0,0,1-.55-2.05h0a1.5,1.5,0,0,1,2.05-.55l6.93,4A1.5,1.5,0,0,1,466.14,321.46Z"/><path class="cls-4" d="M460.65,329.18h0a1.51,1.51,0,0,1-2.11.22l-6.22-5a1.51,1.51,0,0,1-.22-2.11h0a1.5,1.5,0,0,1,2.11-.22l6.22,5A1.51,1.51,0,0,1,460.65,329.18Z"/><circle class="cls-5" cx="404.88" cy="329.21" r="20"/><path class="cls-6" d="M69.78,303.08h3.69L80.81,329,91.1,303.08h.75L102,329l7.46-25.87h3.66L102.82,339h-.66L91.5,311.82,80.63,339H80Z"/><path class="cls-6" d="M141.61,330.18l2.88,1.51a15.75,15.75,0,0,1-3.27,4.49,13,13,0,0,1-4.18,2.6,14.55,14.55,0,0,1-5.26.89q-6.5,0-10.16-4.26a14.55,14.55,0,0,1-.57-18.64,12.71,12.71,0,0,1,10.54-5,13.11,13.11,0,0,1,10.85,5.15,14.44,14.44,0,0,1,2.93,9.09h-23.9a10.82,10.82,0,0,0,3,7.58,9.45,9.45,0,0,0,7.07,3,11.58,11.58,0,0,0,3.95-.7,10.32,10.32,0,0,0,3.26-1.88A16.12,16.12,0,0,0,141.61,330.18Zm0-7.16a11.43,11.43,0,0,0-2-4.37,9.5,9.5,0,0,0-3.46-2.63,10.58,10.58,0,0,0-4.52-1,9.82,9.82,0,0,0-6.73,2.52,11.31,11.31,0,0,0-3.1,5.49Z"/><path class="cls-6" d="M178.21,312.43V339h-3.37v-4.57a14.71,14.71,0,0,1-4.83,3.93,13.45,13.45,0,0,1-15.47-2.77,13.71,13.71,0,0,1-4-9.95,13.49,13.49,0,0,1,4-9.81,13.14,13.14,0,0,1,9.7-4.08,12.58,12.58,0,0,1,5.92,1.39,13.61,13.61,0,0,1,4.65,4.18v-4.88ZM164.55,315a10.29,10.29,0,0,0-9.11,5.34,10.76,10.76,0,0,0,0,10.73,10.56,10.56,0,0,0,3.86,4,10.08,10.08,0,0,0,5.21,1.42,10.67,10.67,0,0,0,5.32-1.41,9.87,9.87,0,0,0,3.86-3.83,10.88,10.88,0,0,0,1.36-5.44,10.58,10.58,0,0,0-3-7.7A10,10,0,0,0,164.55,315Z"/><path class="cls-6" d="M188.87,302.56h3.42v9.87h5.42v2.95h-5.42V339h-3.42V315.38h-4.66v-2.95h4.66Z"/><path class="cls-6" d="M202.84,302.17h3.42v15a14.52,14.52,0,0,1,4.56-4.09,11.19,11.19,0,0,1,5.4-1.36,9.42,9.42,0,0,1,5.28,1.52,9,9,0,0,1,3.41,4.06q1.09,2.55,1.1,8V339h-3.42V326.32a32.27,32.27,0,0,0-.37-6.13,6.25,6.25,0,0,0-6.69-5.3,8.45,8.45,0,0,0-5.55,2.05,9.64,9.64,0,0,0-3.23,5.08,34.36,34.36,0,0,0-.49,7.23V339h-3.42Z"/><path class="cls-6" d="M255.7,330.18l2.88,1.51a15.79,15.79,0,0,1-3.28,4.49,12.78,12.78,0,0,1-4.18,2.6,14.46,14.46,0,0,1-5.25.89q-6.5,0-10.17-4.26a14.36,14.36,0,0,1-3.66-9.63,14.18,14.18,0,0,1,3.1-9,12.69,12.69,0,0,1,10.53-5,13.1,13.1,0,0,1,10.85,5.15,14.39,14.39,0,0,1,2.94,9.09H235.55a10.79,10.79,0,0,0,3,7.58,9.43,9.43,0,0,0,7.07,3,11.52,11.52,0,0,0,3.94-.7,10.36,10.36,0,0,0,3.27-1.88A16.12,16.12,0,0,0,255.7,330.18Zm0-7.16a11.44,11.44,0,0,0-2-4.37,9.33,9.33,0,0,0-3.46-2.63,10.51,10.51,0,0,0-4.52-1,9.79,9.79,0,0,0-6.72,2.52,11.31,11.31,0,0,0-3.1,5.49Z"/><path class="cls-6" d="M264.53,312.43H268v3.88a12.39,12.39,0,0,1,3.3-3.43,6.49,6.49,0,0,1,3.61-1.14,6.23,6.23,0,0,1,3,.91l-1.78,2.88a4.76,4.76,0,0,0-1.81-.47,4.91,4.91,0,0,0-3.29,1.41,8.8,8.8,0,0,0-2.42,4.35c-.42,1.52-.64,4.58-.64,9.18v9h-3.49Z"/><path class="cls-6" d="M328.72,309.74l-2.83,2.17a15.58,15.58,0,0,0-5.63-4.62,16.38,16.38,0,0,0-7.22-1.58,15.93,15.93,0,0,0-8,2.06,14.77,14.77,0,0,0-5.68,5.55,15.21,15.21,0,0,0-2,7.82,14.67,14.67,0,0,0,4.5,11,15.62,15.62,0,0,0,11.36,4.4,16,16,0,0,0,12.63-5.91l2.83,2.15A18.09,18.09,0,0,1,322,338a20.89,20.89,0,0,1-9,1.87q-9.42,0-14.86-6.27a18.93,18.93,0,0,1-4.57-12.8,17.78,17.78,0,0,1,5.53-13.26A19.07,19.07,0,0,1,313,302.17a20.52,20.52,0,0,1,9.08,2A17.76,17.76,0,0,1,328.72,309.74Z"/><path class="cls-6" d="M334.85,302.17h3.41V339h-3.41Z"/><path class="cls-6" d="M357.94,311.74a13.18,13.18,0,0,1,10.18,4.45,14.26,14.26,0,0,1-.21,19.32,14,14,0,0,1-19.86.1l-.1-.1a14.23,14.23,0,0,1-.21-19.3A13.16,13.16,0,0,1,357.94,311.74Zm0,3.35a9.84,9.84,0,0,0-7.33,3.15,10.53,10.53,0,0,0-3.06,7.61,10.77,10.77,0,0,0,1.4,5.38,9.94,9.94,0,0,0,3.77,3.84,10.71,10.71,0,0,0,10.44,0,9.94,9.94,0,0,0,3.77-3.84,10.77,10.77,0,0,0,1.4-5.38,10.48,10.48,0,0,0-3.08-7.61A9.83,9.83,0,0,0,357.93,315.09Z"/><path class="cls-6" d="M391.46,315.33l-2.19,2.27q-2.75-2.66-5.37-2.66a4.08,4.08,0,0,0-2.85,1.1,3.37,3.37,0,0,0-1.18,2.56,3.75,3.75,0,0,0,1,2.47,13.82,13.82,0,0,0,4.12,2.81,15.31,15.31,0,0,1,5.18,3.81,6.93,6.93,0,0,1,1.35,4.17,7.49,7.49,0,0,1-2.3,5.54,7.86,7.86,0,0,1-5.75,2.27,10.11,10.11,0,0,1-4.39-1,9.48,9.48,0,0,1-3.46-2.76l2.15-2.44q2.63,3,5.56,3a5.09,5.09,0,0,0,3.5-1.32,4.07,4.07,0,0,0,1.44-3.1,4,4,0,0,0-.95-2.62,15.62,15.62,0,0,0-4.31-2.83,13.69,13.69,0,0,1-4.89-3.66,6.87,6.87,0,0,1-1.3-4.13,6.72,6.72,0,0,1,2.07-5,7.22,7.22,0,0,1,5.22-2Q387.74,311.74,391.46,315.33Z"/><path class="cls-6" d="M419.88,330.18l2.88,1.51a15.56,15.56,0,0,1-3.27,4.49,13,13,0,0,1-4.18,2.6,14.48,14.48,0,0,1-5.26.89q-6.49,0-10.16-4.26a14.53,14.53,0,0,1-.56-18.64,12.68,12.68,0,0,1,10.53-5,13.1,13.1,0,0,1,10.85,5.15,14.44,14.44,0,0,1,2.93,9.09h-23.9a10.79,10.79,0,0,0,3,7.58,9.41,9.41,0,0,0,7.06,3,11.58,11.58,0,0,0,3.95-.7,10.32,10.32,0,0,0,3.26-1.88A15.85,15.85,0,0,0,419.88,330.18Zm0-7.16a11.28,11.28,0,0,0-2-4.37,9.41,9.41,0,0,0-3.46-2.63,10.58,10.58,0,0,0-4.52-1,9.78,9.78,0,0,0-6.72,2.52,11.32,11.32,0,0,0-3.11,5.49Z"/><path class="cls-6" d="M433,302.56h3.42v9.87h5.42v2.95h-5.42V339H433V315.38h-4.66v-2.95H433Z"/><polygon class="cls-7" points="431.88 328.21 431.75 317.21 431.88 317.34 426.88 317.36 426.73 317.36 426.73 317.21 426.7 311.21 426.7 311.04 426.88 311.04 431.88 311.02 431.68 311.21 431.64 301.21 431.64 300.98 431.88 300.98 437.88 300.97 438.11 300.97 438.11 301.21 438.07 311.21 437.88 311.02 442.88 311.04 443.05 311.04 443.05 311.21 443.02 317.21 443.02 317.36 442.88 317.36 437.88 317.34 438 317.21 437.88 328.21 437.75 317.21 437.75 317.08 437.88 317.08 442.88 317.06 442.73 317.21 442.7 311.21 442.88 311.39 437.88 311.41 437.68 311.41 437.68 311.21 437.64 301.21 437.88 301.45 431.88 301.45 432.11 301.21 432.07 311.21 432.07 311.41 431.88 311.41 426.88 311.39 427.05 311.21 427.02 317.21 426.88 317.06 431.88 317.08 432 317.08 432 317.21 431.88 328.21"/></svg>