<svg xmlns="http://www.w3.org/2000/svg" viewBox="0 0 725 1187"><defs><style>.cls-1{fill:#efefef;}.cls-2{fill:#fffad6;}.cls-3{fill:#c5c6bb;}.cls-4{fill:none;stroke:#ecedf0;stroke-miterlimit:10;stroke-width:2px;}.cls-5{fill:#d8b58f;}.cls-6{fill:#afb2b5;}.cls-7{fill:#d9b690;}.cls-8{fill:#a8b1b6;}.cls-9{fill:#eec79a;}.cls-10{fill:#bfbfbf;}.cls-11{fill:#eacc7b;}</style></defs><title>nsu</title><g id="Layer_6" data-name="Layer 6"><rect class="cls-1" width="725" height="1187"/></g><g id="Layer_3" data-name="Layer 3"><path class="cls-2" d="M1687,217v17h580s25,3,38,36l23,983-660,88v-79l26-2v49l607-83-22-946s-1-24-21-23-599,6-599,6V217Z" transform="translate(-1633.5 -194.5)"/><polygon class="cls-3" points="173.5 289.5 180.5 289.5 180.5 287.5 173.5 287.5 173.5 283.5 166.5 288.5 173.5 292.5 173.5 289.5"/><polygon class="cls-3" points="133.5 54.5 140.5 54.5 140.5 52.5 133.5 52.5 133.5 48.5 126.5 53.5 133.5 57.5 133.5 54.5"/><polygon class="cls-3" points="323.5 54.5 330.5 54.5 330.5 52.5 323.5 52.5 323.5 48.5 316.5 53.5 323.5 57.5 323.5 54.5"/><polygon class="cls-3" points="512.5 54.5 519.5 54.5 519.5 52.5 512.5 52.5 512.5 48.5 505.5 53.5 512.5 57.5 512.5 54.5"/><polygon class="cls-3" points="656 107 656 114 658 114 658 107 662 107 657 100 653 107 656 107"/><polygon class="cls-3" points="656 228 656 235 658 235 658 228 662 228 657 221 653 228 656 228"/><polygon class="cls-3" points="660 347 660 354 662 354 662 347 666 347 661 340 657 347 660 347"/><polygon class="cls-3" points="664 545 664 552 666 552 666 545 670 545 665 538 661 545 664 545"/><polygon class="cls-3" points="671 744 671 751 673 751 673 744 677 744 672 737 668 744 671 744"/><polygon class="cls-3" points="680 1033 680 1040 682 1040 682 1033 686 1033 681 1026 677 1033 680 1033"/><polygon class="cls-3" points="676 944 676 951 678 951 678 944 682 944 677 937 673 944 676 944"/><polygon class="cls-3" points="319 864 319 871 321 871 321 864 325 864 320 857 316 864 319 864"/><polygon class="cls-3" points="319 1026 319 1033 321 1033 321 1026 325 1026 320 1019 316 1026 319 1026"/><polygon class="cls-3" points="319 1079 319 1086 321 1086 321 1079 325 1079 320 1072 316 1079 319 1079"/><path class="cls-2" d="M1659,257l9,1057,26-9.19L1687,493l237,7s22,9,20,27,26,17,26,17,11-59-41-72l-241-5-.69-204.25L1693,247Z" transform="translate(-1633.5 -194.5)"/><polygon class="cls-3" points="52.5 287.5 59.5 287.5 59.5 285.5 52.5 285.5 52.5 281.5 45.5 286.5 52.5 290.5 52.5 287.5"/><polygon class="cls-3" points="173.5 289.5 180.5 289.5 180.5 287.5 173.5 287.5 173.5 283.5 166.5 288.5 173.5 292.5 173.5 289.5"/><path class="cls-2" d="M1941,946l-.28,329.26L1952,1281l19-4-3-106,275-10s8-1,9,16,0,60,0,60l31-2-5-76s-6-23-27-25l-284,12,1-227Z" transform="translate(-1633.5 -194.5)"/><polygon class="cls-3" points="587.5 955.5 594.5 955.5 594.5 953.5 587.5 953.5 587.5 949.5 580.5 954.5 587.5 958.5 587.5 955.5"/><polygon class="cls-3" points="368.5 964.5 375.5 964.5 375.5 962.5 368.5 962.5 368.5 958.5 361.5 963.5 368.5 967.5 368.5 964.5"/></g><g id="Layer_2" data-name="Layer 2"><path class="cls-4" d="M1687,218.36V234l574-3s37.07,6.93,44,40.47L2328,1253l-660,88-9-1122.64" transform="translate(-1633.5 -194.5)"/><path class="cls-4" d="M2192,1164l51-2s8.82.52,8.91,13.76v57l-281.08,38.44-2.8-99.21,83.75-4" transform="translate(-1633.5 -194.5)"/><polyline class="cls-4" points="417.13 947.97 333.5 950.88 333.96 846.46"/><path class="cls-4" d="M1941,1041l-.28,109.87L1941,1275l-245,33.72-9-814,234.67,5.23S1929,502,1930,503" transform="translate(-1633.5 -194.5)"/><path class="cls-4" d="M1964.26,499.32S1950.08,471.92,1927,472l-239-6.36-.69-202.22,572.41-6.4s17.11-.05,19.2,22L2301,1226l-18.43,2.52-5-70.76s-6.32-23.65-28-23.7l-58.6,2.47" transform="translate(-1633.5 -194.5)"/></g><g id="Layer_5" data-name="Layer 5"><path class="cls-5" d="M1765,268s5-2,14,1,16,5.36,16,5.36V278Z" transform="translate(-1633.5 -194.5)"/><path class="cls-5" d="M1761,426s9,3,17,0,17-5.47,17-5.47V417Z" transform="translate(-1633.5 -194.5)"/><rect class="cls-5" x="281.5" y="222.5" width="12" height="11"/><polygon class="cls-5" points="320.5 219.52 331.5 219.5 332.19 206.4 320.5 205.5 320.5 219.52"/><path class="cls-5" d="M1967,401h11s16-53,2-101l-6-21-9.65,1.35S1959,379,1967,401Z" transform="translate(-1633.5 -194.5)"/><path class="cls-5" d="M1955,271l10,1s1,4,0,6-7,2-7,2l-6-2Z" transform="translate(-1633.5 -194.5)"/><polygon class="cls-5" points="280.5 70.5 290.5 70.5 290.5 76.5 278.5 76.5 280.5 70.5"/><polygon class="cls-6" points="619.5 244.5 630.5 242.5 627.5 75.5 609.5 75.5 619.5 244.5"/><path class="cls-7" d="M2257.91,447.08S2270,445,2270,451s3.5,519.77,3.5,519.77L2266,1007l-28-8,9-73Z" transform="translate(-1633.5 -194.5)"/><polygon class="cls-7" points="642.5 776.5 650.5 776.5 650.5 848.5 632.5 848.5 642.5 776.5"/><polygon class="cls-7" points="612.5 848.5 612.5 888.5 591.5 886.5 595.5 840.5 612.5 848.5"/><polygon class="cls-7" points="577.5 888.5 580.5 933.5 571.5 933.5 561.5 914.5 564.5 885.5 577.5 888.5"/><polygon class="cls-7" points="556.5 930.5 559.5 975.5 550.5 975.5 538.5 953.5 545.5 926.5 556.5 930.5"/><polygon class="cls-7" points="407.5 777.5 424.5 776.5 417.5 304.5 403.5 304.5 407.5 777.5"/></g><g id="Layer_4" data-name="Layer 4"><polygon class="cls-8" points="74 239 103 241 103 272 74 272 74 239"/><path class="cls-9" d="M1765,268s-29,44-4,158l34-9v11h120V417l39-2V400l13,1s21-31-3-122l-9-1v-7l-41-1v-6l-119,2v12Z" transform="translate(-1633.5 -194.5)"/><polygon class="cls-10" points="422.5 95.5 420.5 198.5 479.5 252.5 619.5 243.5 614.5 76.5 461.5 73.5 461.5 94.5 422.5 95.5"/><polygon class="cls-9" points="495.5 284.5 518.5 260.5 625.5 252.5 628.5 804.5 632.5 804.5 631.5 775.5 642.5 776.5 641.5 849.5 604.5 849.5 604.5 888.5 568.5 888.5 571.5 933.5 547.5 929.5 550.5 975.5 418.5 974.5 416.5 926.5 396.5 923.5 396.5 889.5 359.5 887.5 357.5 846.5 309.5 845.5 305.5 764.5 297.5 304.5 405.5 303.5 411.5 774.5 513.5 775.5 514.5 438.5 496.5 437.5 495.5 284.5"/><rect class="cls-8" x="97.5" y="349.5" width="88" height="130"/><polygon class="cls-8" points="202.5 332.5 262.5 332.5 262.5 383.5 292.5 383.5 292.5 461.5 202.5 461.5 202.5 332.5"/><rect class="cls-8" x="77.5" y="501.5" width="41" height="86"/><rect class="cls-8" x="202.5" y="481.5" width="90" height="110"/><rect class="cls-8" x="157.5" y="912.5" width="92" height="36"/><polygon class="cls-8" points="100.5 971.5 176.5 971.5 180.5 1053.5 102.5 1053.5 100.5 971.5"/><polygon class="cls-11" points="265.5 955.5 261.5 1022.5 302.5 1025.5 307.5 955.5 265.5 955.5"/></g></svg>