<?xml version="1.0" encoding="utf-8"?>
<!-- Generator: Adobe Illustrator 23.0.5, SVG Export Plug-In . SVG Version: 6.00 Build 0)  -->
<svg version="1.1" id="Layer_1" xmlns="http://www.w3.org/2000/svg" xmlns:xlink="http://www.w3.org/1999/xlink" x="0px" y="0px"
	 viewBox="0 0 340.4 715" style="enable-background:new 0 0 340.4 715;" xml:space="preserve">
<style type="text/css">
	.st0{fill:#FFFFFF;}
	.st1{fill:none;stroke:#FF0000;stroke-width:5;stroke-miterlimit:10;}
</style>
<title>phone</title>
<path d="M293.1,0.2H51.7c0,0-47-5.8-51.7,47.3v620.6c0,0,2.7,46,49.4,46.6s245.1,0,245.1,0s46-4.4,46-46V47.5
	C340.5,47.5,336.7,0.2,293.1,0.2z M321.7,595.8c0,6.6-5.4,12-12,12H31.1c-6.6,0-12-5.4-12-12v-490c0-6.6,5.4-12,12-12h278.6
	c6.6,0,12,5.4,12,12V595.8z"/>
<path class="st0" d="M142,46.1h57.9c2.7,0,4.9,2.2,4.9,4.9l0,0c0,2.7-2.2,4.9-4.9,4.9H142c-2.7,0-4.9-2.2-4.9-4.9l0,0
	C137,48.3,139.2,46.1,142,46.1z"/>
<circle class="st0" cx="170.9" cy="659.4" r="29.1"/>
<rect x="30" y="251.3" class="st1" width="280" height="221.6"/>
<polygon class="st0" points="66.3,258.4 271.6,258.4 271.7,463.8 66.3,463.9 "/>
<g>
	<g>
		<g>
			<path d="M136,271.4H79.3v56.7H136V271.4z M124.6,316.7h-34v-34h34V316.7z"/>
			<rect x="101.9" y="294" width="11.3" height="11.3"/>
			<path d="M204,271.4v56.7h56.7v-56.7H204z M249.4,316.7h-34v-34h34V316.7z"/>
			<rect x="226.7" y="294" width="11.3" height="11.3"/>
			<path d="M79.3,452.9H136v-56.7H79.3V452.9z M90.6,407.5h34v34h-34V407.5z"/>
			<rect x="101.9" y="418.8" width="11.3" height="11.3"/>
			<rect x="170" y="271.4" width="22.7" height="11.3"/>
			<polygon points="170,316.7 181.3,316.7 181.3,305.4 192.7,305.4 192.7,294 158.7,294 158.7,282.7 147.3,282.7 147.3,294 
				147.3,299.7 147.3,305.4 170,305.4 			"/>
			<rect x="147.3" y="316.7" width="11.3" height="11.3"/>
			<polygon points="192.7,328.1 181.3,328.1 181.3,339.4 147.3,339.4 147.3,350.8 192.7,350.8 			"/>
			<polygon points="90.6,373.4 101.9,373.4 101.9,362.1 90.6,362.1 90.6,339.4 79.3,339.4 79.3,384.8 90.6,384.8 			"/>
			<rect x="101.9" y="339.4" width="11.3" height="11.3"/>
			<polygon points="147.3,384.8 170,384.8 170,373.4 158.7,373.4 158.7,362.1 136,362.1 136,339.4 124.6,339.4 124.6,362.1 
				113.3,362.1 113.3,384.8 124.6,384.8 124.6,373.4 130.3,373.4 136,373.4 147.3,373.4 			"/>
			<rect x="181.3" y="362.1" width="11.3" height="22.7"/>
			<polygon points="181.3,396.1 147.3,396.1 147.3,407.5 170,407.5 170,441.5 147.3,441.5 147.3,452.9 181.3,452.9 181.3,441.5 
				204,441.5 204,430.2 181.3,430.2 			"/>
			<rect x="147.3" y="418.8" width="11.3" height="11.3"/>
			<rect x="192.7" y="396.1" width="11.3" height="22.7"/>
			<polygon points="249.4,418.8 215.4,418.8 215.4,452.9 226.7,452.9 226.7,430.2 249.4,430.2 			"/>
			<rect x="238.1" y="441.5" width="22.7" height="11.3"/>
			<rect x="249.4" y="396.1" width="11.3" height="11.3"/>
			<polygon points="215.4,407.5 226.7,407.5 226.7,373.4 204,373.4 204,384.8 215.4,384.8 			"/>
			<polygon points="238.1,350.8 226.7,350.8 226.7,339.4 215.4,339.4 215.4,350.8 204,350.8 204,362.1 249.4,362.1 249.4,350.8 
				260.8,350.8 260.8,339.4 238.1,339.4 			"/>
			<rect x="238.1" y="373.4" width="22.7" height="11.3"/>
		</g>
	</g>
</g>
</svg>
