<svg id="Layer_2" data-name="Layer 2" xmlns="http://www.w3.org/2000/svg" viewBox="0 0 340.43 715.04"><defs><style>.cls-1{fill:#fff;}</style></defs><title>phone</title><path d="M420.21,64.1H178.85s-47-5.78-51.74,47.32V732s2.72,46,49.36,46.64,245.1,0,245.1,0,46-4.43,46-46V111.42S463.79,64.1,420.21,64.1Zm28.6,595.64a12,12,0,0,1-12,12H158.26a12,12,0,0,1-12-12v-490a12,12,0,0,1,12-12H436.81a12,12,0,0,1,12,12Z" transform="translate(-127.11 -63.92)"/><rect class="cls-1" x="137.02" y="46.14" width="67.74" height="9.87" rx="4.94"/><circle class="cls-1" cx="170.89" cy="659.44" r="29.06"/></svg>