<svg id="Layer_2" data-name="Layer 2" xmlns="http://www.w3.org/2000/svg" viewBox="0 0 533.17 404.52"><defs><style>.cls-1{fill:#26b2ff;}.cls-2{fill:#005c9d;}</style></defs><title>searchIcon</title><path class="cls-1" d="M762.2,634.33s27.24-2.81,27.24,14S781.19,667.08,762.2,668,692,670.83,649.09,611.87,622.67,441.56,698.62,403.2c0,0,22.3-76.74,106.51-62.7,0,0,124.67-119.78,241.08,33.69,0,0,98.25,13.1,111.45,125.39s-75.13,162.82-109.8,165.63S995,671.76,995,652.11s14.86-18.71,20.64-18.71,33.85,1.87,55.32-11.23,57.79-41.18,57.79-102-33.85-90.77-59.45-104.81-80.08-18.71-113.93,24.33c0,0-12.38,19.65-8.26-1.87s28.9-48.66,59.45-63.63c0,0-36.33-47.73-99.08-44.92S806.78,377,788.62,420s-8.26-21.52-2.48-48.66c0,0-44.58,0-55.32,33.69s-9.9,51.47,11.56,76.73-44.58.94-47.06-37.43c0,0-43.76,30.88-39.63,88s38,101.07,83.39,101.07Z" transform="translate(-625.83 -296)"/><path class="cls-2" d="M862.5,418C803.68,418,756,466.58,756,526.5S803.68,635,862.5,635,969,586.42,969,526.5,921.32,418,862.5,418ZM862,617a89,89,0,1,1,89-89A89,89,0,0,1,862,617Z" transform="translate(-625.83 -296)"/><rect class="cls-2" x="951.19" y="601.89" width="46.84" height="99.82" rx="10" transform="translate(-812.47 517.72) rotate(-41.71)"/><rect class="cls-2" x="954.72" y="590.89" width="19.77" height="99.82" transform="translate(-807.68 508.28) rotate(-41.71)"/><path class="cls-2" d="M858,472c3,0,54,2,59,48,0,0,0,11,8,11s10-1,10-14-20-65-77-62c0,0-9-1-9,9S858,472,858,472Z" transform="translate(-625.83 -296)"/></svg>