<svg id="Layer_1" data-name="Layer 1" xmlns="http://www.w3.org/2000/svg" xmlns:xlink="http://www.w3.org/1999/xlink" viewBox="0 0 959.9 719.92"><defs><style>.cls-1{fill:url(#radial-gradient);}.cls-2{fill:#fee7bd;}.cls-3{fill:url(#linear-gradient);}.cls-4{fill:url(#linear-gradient-2);}.cls-5{fill:url(#linear-gradient-3);}.cls-6,.cls-7,.cls-8{opacity:0.33;}.cls-6{fill:url(#linear-gradient-4);}.cls-7{fill:url(#linear-gradient-5);}.cls-8{fill:url(#linear-gradient-6);}</style><radialGradient id="radial-gradient" cx="603.76" cy="291.18" r="257.91" gradientUnits="userSpaceOnUse"><stop offset="0" stop-color="#fee7bd"/><stop offset="0.31" stop-color="#fccb8c"/><stop offset="0.61" stop-color="#fab465"/><stop offset="0.85" stop-color="#f8a64e"/><stop offset="0.99" stop-color="#f8a145"/></radialGradient><linearGradient id="linear-gradient" x1="209.2" y1="377.87" x2="209.2" y2="588.87" gradientUnits="userSpaceOnUse"><stop offset="0" stop-color="#f9c052"/><stop offset="0.16" stop-color="#f9b14a"/><stop offset="0.43" stop-color="#f89e3f"/><stop offset="0.71" stop-color="#f89338"/><stop offset="1" stop-color="#f88f36"/></linearGradient><linearGradient id="linear-gradient-2" x1="629.54" y1="212" x2="629.54" y2="587.75" gradientUnits="userSpaceOnUse"><stop offset="0" stop-color="#fadb63"/><stop offset="0.26" stop-color="#f9cd5b"/><stop offset="0.75" stop-color="#f8a845"/><stop offset="1" stop-color="#f79238"/></linearGradient><linearGradient id="linear-gradient-3" x1="399.24" y1="473.48" x2="399.24" y2="590.18" gradientUnits="userSpaceOnUse"><stop offset="0" stop-color="#e78833"/><stop offset="0.46" stop-color="#e38530"/><stop offset="0.9" stop-color="#d87c28"/><stop offset="1" stop-color="#d47926"/></linearGradient><linearGradient id="linear-gradient-4" x1="689.64" y1="212.03" x2="689.64" y2="324.31" gradientTransform="matrix(1, 0, 0, -1, -480.44, 915.37)" xlink:href="#linear-gradient"/><linearGradient id="linear-gradient-5" x1="1110.28" y1="322.42" x2="1109.44" y2="147.82" gradientTransform="matrix(1, 0, 0, -1, -480.44, 915.37)" gradientUnits="userSpaceOnUse"><stop offset="0" stop-color="#f79238"/><stop offset="1" stop-color="#fadb63"/></linearGradient><linearGradient id="linear-gradient-6" x1="879.68" y1="208.24" x2="879.68" y2="324.94" gradientTransform="matrix(1, 0, 0, -1, -480.44, 915.37)" xlink:href="#linear-gradient-3"/></defs><title>sunset sky</title><rect class="cls-1" width="959.9" height="719.92"/><circle class="cls-2" cx="603.48" cy="286.57" r="75.99"/><polygon class="cls-3" points="0 542.36 110.87 421.92 165.28 487.95 242.93 346.71 353.59 489.78 418.4 503.23 418.4 590.31 0 590.31 0 542.36"/><polygon class="cls-4" points="959.9 590.31 959.9 390.38 938.39 356.55 870.53 318.84 768.73 156.52 644.01 363.78 613.74 390.38 554.13 313.34 437.66 490.34 328.52 526.11 299.18 590.31 959.9 590.31"/><polygon class="cls-5" points="395.57 590.18 404.29 590.18 404.29 548.45 418.04 548.45 412.31 525.52 418.04 525.52 408.41 509.93 416.9 509.93 398.56 473.48 380.44 509.7 390.07 509.7 380.44 525.75 386.63 525.75 380.44 547.53 396.26 547.53 395.57 590.18"/><polygon class="cls-6" points="331.09 719.92 353.59 690.83 418.4 677.38 418.4 590.31 0 590.31 0 638.25 75.18 719.92 142.82 719.92 165.28 692.66 180.27 719.92 331.09 719.92"/><polygon class="cls-7" points="959.9 719.92 959.9 590.31 299.18 590.31 328.52 654.5 437.66 690.27 457.17 719.92 959.9 719.92"/><polygon class="cls-8" points="395.57 590.43 404.29 590.43 404.29 632.16 418.04 632.16 412.31 655.09 418.04 655.09 408.41 670.68 416.9 670.68 398.56 707.13 380.44 670.91 390.07 670.91 380.44 654.86 386.63 654.86 380.44 633.08 396.26 633.08 395.57 590.43"/></svg>