<svg xmlns="http://www.w3.org/2000/svg" viewBox="0 0 1920 577.7"><defs><style>.cls-1{fill:#1b2caf;opacity:0.32;}.cls-2{fill:#0e21a5;opacity:0.23;}.cls-3{fill:#3049bf;}</style></defs><title>bg-purple-shades</title><g id="bg"><path class="cls-1" d="M0,610.12l367-100s104-31,203,17,536,350.91,710,368.91,407-115,496-169,144-70,144-70V1078H0Z" transform="translate(0 -500.3)"/></g><g id="Layer_2" data-name="Layer 2"><path class="cls-2" d="M304.6,527.05S173,613.72,150,657.56,464,879.74,585,910.62s464,37.86,464,37.86S819,979.37,694,996.3,1013.08,1066,1187,1076H0V609.74Z" transform="translate(0 -500.3)"/><path class="cls-3" d="M1504.39,1078S1494,1002.67,1533,980.57s67-21.09,67-21.09l-36-23.1,29,10-6-32.14,19,32.14,4-32.14v23.1l11-23.1V941.4l17-15.06v27.11s71-17.07,87-39.17,4,0,4,0l-29-23.1,33,11.05L1708,854l36,42.18,17-65.28-5,59.26,14-15.07v17.08s130-31.44,150-15.22v201Z" transform="translate(0 -500.3)"/><path class="cls-3" d="M1074.22,1078H0V810.14s64-3.91,101,18.15V802.22l13,19,9-39.11-4-6,11-4v9l-5,38.11,16-5-3,7,24-19s-1-8,13-9-11,15-11,15l-19,17,9,3-8,11,14,4-17,8s39,14,68,63.18,123,65.18,140,63.18c0,0,4-14-5-21.06,0,0,17,8,17,14l7-18.05v13l3,5,10-13v20.06l11-14v14s1,19,14-3,19-33.1,19-33.1v17l7-3-18,23.07S491,966,621,1010,1074.22,1078,1074.22,1078Z" transform="translate(0 -500.3)"/></g></svg>