<svg xmlns="http://www.w3.org/2000/svg" viewBox="0 0 1920 577.85"><defs><style>.cls-1{fill:#1b2caf;opacity:0.32;}.cls-2{fill:#0e21a5;}.cls-2,.cls-3{opacity:0.23;}.cls-3{fill:#00127c;}</style></defs><title>bg-purple-shades</title><g id="bg"><path class="cls-1" d="M0,612,367,512s104-31,203,17,536,351,710,369,407-115,496-169,144-70,144-70v421H0Z" transform="translate(0 -502.15)"/></g><g id="Layer_2" data-name="Layer 2"><path class="cls-2" d="M304.6,529S173,616,150,660,464,883,585,914s464,38,464,38-230,31-355,48,319.08,70,493,80H0V612Z" transform="translate(0 -502.15)"/><path class="cls-3" d="M0,1080V812.9S64,809,101,831V805l13,19,9-39-4-6,11-4v9l-5,38,16-5-3,7,24-19s-1-8,13-9-11,15-11,15l-19,17,9,3-8,11,14,4-17,8s39,14,68,63,123,65,140,63c0,0,4-14-5-21,0,0,17,8,17,14l7-18v13l3,5,10-13v20l11-14v14s1,19,14-3,19-33,19-33v17l7-3-18,23s-15-20,276,57c0,0,72,19,263,42Z" transform="translate(0 -502.15)"/><path class="cls-3" d="M1504.39,1080S1494,1005,1533,983s67-21,67-21l-36-23,29,10-6-32,19,32,4-32v23l11-23v27l17-15v27s71-17,87-39,4,0,4,0l-29-23,33,11-25-48,36,42,17-65-5,59,14-15v17s130-31.29,150-15.15V1080Z" transform="translate(0 -502.15)"/></g></svg>