<svg id="Layer_5" data-name="Layer 5" xmlns="http://www.w3.org/2000/svg" viewBox="0 0 857.72 340.91"><defs><style>.cls-1,.cls-11,.cls-25{fill:none;}.cls-1{stroke:#000;stroke-width:3px;}.cls-1,.cls-11,.cls-24,.cls-25,.cls-27{stroke-miterlimit:10;}.cls-2{fill:#e6ecfe;}.cls-3{fill:#f0b099;}.cls-4{fill:#f0af9f;}.cls-5{fill:#558ad7;}.cls-6{fill:#1a2c53;}.cls-7{fill:#31529a;}.cls-8{fill:#96c8fd;}.cls-9{fill:#5486ca;}.cls-10{fill:#1e2b5a;}.cls-11{stroke:#fff;}.cls-11,.cls-24,.cls-25{stroke-width:2px;}.cls-12{fill:#ee8275;}.cls-13{fill:#000404;}.cls-14{fill:#c56351;}.cls-15{fill:#b34035;}.cls-16{fill:#64a2ff;}.cls-17{fill:#1b2caf;opacity:0.32;}.cls-17,.cls-18,.cls-19,.cls-20{isolation:isolate;}.cls-18{fill:#0e21a5;}.cls-18,.cls-19{opacity:0.23;}.cls-19,.cls-20{fill:#00127c;}.cls-20{opacity:0.06;}.cls-21{fill:#f68a9b;}.cls-22{fill:#f1acaf;}.cls-23,.cls-24{fill:#fffbff;}.cls-24,.cls-25,.cls-27{stroke:#fffbff;}.cls-26,.cls-27{fill:#2a4174;}</style></defs><title>person-bg</title><rect class="cls-1" x="137.76" y="137.62" width="20.47" height="11.07" rx="3" transform="matrix(0.31, -0.95, 0.95, 0.31, -33.72, 239.98)"/><rect class="cls-2" x="137.86" y="137.75" width="20.47" height="10.87" transform="translate(-33.68 240.11) rotate(-72.1)"/><path class="cls-3" d="M149.37,145.55s.55-3,1.5,0,1.43,8-1.16,10.43l-2.58,2.38s-3.34-2.79-6.61-3.41c0,0,.13-2.72,1.56-2.92a10.78,10.78,0,0,1,4,.81S148.9,153.37,149.37,145.55Z" transform="translate(0 0)"/><path class="cls-4" d="M106.07,141.85l1.86-7.63s5.72,3.78,7.27-2.65,4.63-7,4.63-7,1.09.63-1.27-2.64-2.73-8.35-2.91-9.44-9.58-3.91-9.58-3.91l-5.22,4.63-4.55,1.46-2.45,4.63,2.64,5.9s-3,7.54-3,8.45S106.07,141.85,106.07,141.85Z" transform="translate(0 0)"/><path class="cls-5" d="M106.07,141s-.86-6-5.41-7.35-8.53-3.72-9.9-.45-2.11,5-2.11,5L94,142.67l9.81.48Z" transform="translate(0 0)"/><polygon class="cls-6" points="96.99 252.02 90.57 315.58 81.45 307.61 79.82 233.42 86.56 222.94 101.69 238.73 96.99 252.02"/><path class="cls-7" d="M116.54,218.77s5.38,29.16,7.63,43.67-3.82,59.27-3.82,59.27H102.1v-48s-.14-4.91-6.1-18.6-10.46-26.56-10.46-26.56-1.84,12.06,2,19.62.41,21,.41,21-.81,5.52,1.64,15.53S89,301.88,89,301.88a13,13,0,0,0,1.64,9.81l-.2,10H72.26s-1.64-32.7,0-50.08a297.19,297.19,0,0,0,.81-35.56s1.09-22.34,2.39-24.86,21.53,0,21.53,0l15.12,3Z" transform="translate(0 0)"/><path class="cls-5" d="M119.83,195.55l-.64,10.65s0,5-3.27,5.45c0,0,1,2.58,0,4.49s-31.47,2.86-40.46-4.9c0,0-1.59-1.1,1.05-5.25s-.23-4.84-.23-4.84-4.8-1.71-10-12.1S69.63,166,69.63,166l7.63-9,13.35,11.73,23.71,4Z" transform="translate(0 0)"/><path class="cls-8" d="M147.13,158.34a1.39,1.39,0,0,0,0,2l0,0c.88,1.22-1.78,13.89-2.25,16s-4.16,12.74-7.7,16.69-12.26,9.53-21.26,0c0,0-3.67-4.09-6.54-14.24s-4.83,1.84-4.42,5.24,1.09,9.88,3,14.58,1.09,13.76-7,9.75-7.43-8.73-8.45-4.64.07,5.55-6.2,5.64-11.1-2-12-9-1.31-27.81.74-38.27c0,0-4.7,10.42-3.54,15a8.4,8.4,0,0,1-2.32,7.76,9.74,9.74,0,0,0-1,7.09s-6.54-8.11-4.5-15.81a76.67,76.67,0,0,1,13.42-28.68c8.93-12.26,12.61-9.13,20.1-8.17s21.46,3.47,27.52,17.23,4.5,18.67,4.5,18.67,4.22-12.88,9.33-18.74a2.3,2.3,0,0,1,2-1.5S144.74,155.48,147.13,158.34Z" transform="translate(0 0)"/><path class="cls-9" d="M147.13,158.34s-.21,1.09-1.43.48-5-2.86-7.16-2.39c0,0-.07-1.43,2-1.5S147.13,158.34,147.13,158.34Z" transform="translate(0 0)"/><path class="cls-10" d="M116.54,215.84v2.93s-24.6,5.72-41.08-7.56l9.67,2.34Z" transform="translate(0 0)"/><path class="cls-11" d="M108.64,220,118,267.75a71,71,0,0,1,0,14.72c-.82,9-2.66,39.24-2.66,39.24" transform="translate(0 0)"/><path class="cls-11" d="M112.2,220l9.4,47.76a69.64,69.64,0,0,1,0,14.72c-.82,9-2.66,39.24-2.66,39.24" transform="translate(0 0)"/><path class="cls-12" d="M107.93,134.22s-5.27-3.81-5.72-6.72c0,0-.75,5.42,4.57,11.43Z" transform="translate(0 0)"/><path class="cls-13" d="M98.48,123.55s-1.72,4.36-6,0,1-11.27,1-11.27,22-5.72,22.41-2.72.19,3.36-2.12,3.81-4,1.4-7.71.73-5.41,3-5.41,3S92.58,113.55,98.48,123.55Z" transform="translate(0 0)"/><path class="cls-14" d="M115.74,110.15s-10.09,1.91-15.08,3.82-10.08,6.63-11.08,3.72-2-11,5.73-15.53,12.8-4.27,18,2.63a19.2,19.2,0,0,0,1.82,1.28C116.38,106.88,115.74,110.15,115.74,110.15Z" transform="translate(0 0)"/><path class="cls-15" d="M113.78,105.17s-17.28,2.08-24.87,8.16l.15-2.1S105.09,103,113.78,105.17Z" transform="translate(0 0)"/><path class="cls-16" d="M857.68.89V0H0C0,28.25,28.08,30.9,160.84,30.21s34.4,58.47,13.07,74.59-22.28,32.56-22.28,32.56c15-35,181.19-105.77,448.09-105.77S857.68.89,857.68.89Z" transform="translate(0 0)"/><path class="cls-17" d="M857.68,1V.14H0C0,28.39,28.08,31,160.84,30.35s34.4,58.47,13.07,74.59-22.28,32.56-22.28,32.56c15-35,181.19-105.77,448.09-105.77S857.68,1,857.68,1Z" transform="translate(0 0)"/><path class="cls-18" d="M857.68,1V.14H0C0,28.39,28.08,31,160.84,30.35s34.4,58.47,13.07,74.59-22.28,32.56-22.28,32.56c15-35,181.19-105.77,448.09-105.77S857.68,1,857.68,1Z" transform="translate(0 0)"/><path class="cls-19" d="M857.68.89V0H0C0,28.25,28.08,30.9,160.84,30.21s34.4,58.47,13.07,74.59-22.28,32.56-22.28,32.56c15-35,181.19-105.77,448.09-105.77S857.68.89,857.68.89Z" transform="translate(0 0)"/><path class="cls-20" d="M683.09,30.41c160.55-5,173.68-24.24,174.57-28.63V.89A6.65,6.65,0,0,0,857.6,0H672S671.45,28.23,683.09,30.41Z" transform="translate(0 0)"/><path class="cls-21" d="M118.47,321.71v3.55s3,5.12,8.6,6,8.34,4.6,8.34,6v3.29H104.54v-4.14s-.26-3.22,1-4.4,1.69-4.67,1.56-6.5a36.56,36.56,0,0,1,0-3.88Z" transform="translate(0 0)"/><polygon class="cls-22" points="118.74 325.69 107.09 325.58 107.09 323.02 118.47 323.62 118.74 325.69"/><circle class="cls-23" cx="110.53" cy="331.43" r="1.75"/><line class="cls-24" x1="119.38" y1="326.54" x2="114.07" y2="327.36"/><line class="cls-24" x1="125.47" y1="330.91" x2="125.47" y2="333.53"/><line class="cls-25" x1="123.21" y1="329.89" x2="121.03" y2="332.22"/><line class="cls-25" x1="116.72" y1="330.38" x2="120.69" y2="327.97"/><path class="cls-21" d="M85.44,322v3.55s3,5.12,8.61,6,8.34,4.6,8.34,6v3.29H71.52v-4.14s-.27-3.22,1-4.4,1.69-4.66,1.57-6.5a36.56,36.56,0,0,1,0-3.88Z" transform="translate(0 0)"/><polygon class="cls-22" points="85.72 325.95 74.07 325.85 74.07 323.29 85.44 323.88 85.72 325.95"/><circle class="cls-23" cx="77.51" cy="331.69" r="1.75"/><line class="cls-24" x1="86.35" y1="326.8" x2="81.04" y2="327.62"/><line class="cls-24" x1="92.45" y1="331.17" x2="92.45" y2="333.8"/><line class="cls-25" x1="90.19" y1="330.15" x2="88" y2="332.48"/><line class="cls-25" x1="83.7" y1="330.64" x2="87.67" y2="328.23"/><rect class="cls-26" x="104.52" y="337.96" width="30.89" height="2.67"/><line class="cls-27" x1="104.54" y1="339.29" x2="135.41" y2="339.29"/><rect class="cls-26" x="71.58" y="338.24" width="30.89" height="2.67"/><line class="cls-27" x1="71.6" y1="339.58" x2="102.47" y2="339.58"/></svg>