<svg id="Layer_8" data-name="Layer 8" xmlns="http://www.w3.org/2000/svg" viewBox="0 0 1919.05 717.22"><defs><style>.cls-1{fill:#f68a9b;}.cls-2{fill:#f1acaf;}.cls-3,.cls-4{fill:#fffbff;}.cls-4,.cls-5,.cls-7{stroke:#fffbff;}.cls-18,.cls-4,.cls-5,.cls-7,.cls-8{stroke-miterlimit:10;}.cls-18,.cls-4,.cls-5{stroke-width:2px;}.cls-18,.cls-5,.cls-8{fill:none;}.cls-6,.cls-7{fill:#2a4174;}.cls-8{stroke:#000;stroke-width:3px;}.cls-9{fill:#e6ecfe;}.cls-10{fill:#f0b099;}.cls-11{fill:#f0af9f;}.cls-12{fill:#558ad7;}.cls-13{fill:#1a2c53;}.cls-14{fill:#31529a;}.cls-15{fill:#96c8fd;}.cls-16{fill:#5486ca;}.cls-17{fill:#1e2b5a;}.cls-18{stroke:#fff;}.cls-19{fill:#ee8275;}.cls-20{fill:#000404;}.cls-21{fill:#c56351;}.cls-22{fill:#b34035;}.cls-23{fill:#3049bf;}</style></defs><title>person-bg</title><path class="cls-1" d="M141.71,760.23v7.4s6.16,10.68,17.94,12.6,17.4,9.59,17.4,12.6v6.85H112.67v-8.63s-.55-6.71,2-9.18,3.53-9.72,3.27-13.56a76.11,76.11,0,0,1,0-8.08Z" transform="translate(-0.2 -83.06)"/><polygon class="cls-2" points="142.09 685.46 117.79 685.25 117.79 679.91 141.51 681.14 142.09 685.46"/><circle class="cls-3" cx="124.96" cy="697.45" r="3.64"/><line class="cls-4" x1="143.41" y1="687.24" x2="132.33" y2="688.95"/><line class="cls-4" x1="156.12" y1="696.36" x2="156.12" y2="701.83"/><line class="cls-5" x1="151.41" y1="694.23" x2="146.85" y2="699.1"/><line class="cls-5" x1="137.87" y1="695.25" x2="146.15" y2="690.23"/><path class="cls-1" d="M72.83,760.78v7.4s6.17,10.68,18,12.6,17.39,9.59,17.39,12.6v6.85H43.79V791.6s-.55-6.71,2.06-9.18,3.52-9.72,3.26-13.56a76,76,0,0,1,0-8.08Z" transform="translate(-0.2 -83.06)"/><polygon class="cls-2" points="73.21 686.01 48.92 685.8 48.92 680.46 72.63 681.69 73.21 686.01"/><circle class="cls-3" cx="56.09" cy="697.99" r="3.64"/><line class="cls-4" x1="74.53" y1="687.79" x2="63.46" y2="689.5"/><line class="cls-4" x1="87.24" y1="696.91" x2="87.24" y2="702.38"/><line class="cls-5" x1="82.53" y1="694.78" x2="77.98" y2="699.64"/><line class="cls-5" x1="68.99" y1="695.8" x2="77.27" y2="690.78"/><rect class="cls-6" x="112.42" y="711.06" width="64.43" height="5.57"/><line class="cls-7" x1="112.47" y1="713.84" x2="176.85" y2="713.84"/><rect class="cls-6" x="43.72" y="711.66" width="64.43" height="5.57"/><line class="cls-7" x1="43.77" y1="714.44" x2="108.15" y2="714.44"/><rect class="cls-8" x="187.65" y="381.21" width="22.26" height="41.16" rx="3" transform="translate(264.21 762.17) rotate(-162.1)"/><rect class="cls-9" x="188.03" y="381.27" width="21.87" height="41.16" transform="translate(264.55 762.35) rotate(-162.1)"/><path class="cls-10" d="M201.45,406.58s1.09-6,3,0,2.88,16.17-2.33,21l-5.2,4.8s-6.71-5.62-13.29-6.85c0,0,.27-5.48,3.15-5.89s8,1.64,8,1.64S200.49,422.34,201.45,406.58Z" transform="translate(-0.2 -83.06)"/><path class="cls-11" d="M114.38,399.19l3.74-15.35s11.5,7.6,14.61-5.33,9.31-14,9.31-14,2.19,1.28-2.55-5.29-5.48-16.81-5.85-19-19.26-7.85-19.26-7.85l-10.51,9.31-9.13,2.92-4.93,9.32,5.29,11.87s-6,15.16-6,17S114.38,399.19,114.38,399.19Z" transform="translate(-0.2 -83.06)"/><path class="cls-12" d="M114.38,397.53s-1.74-12-10.88-14.78-17.17-7.49-19.9-.92-4.26,10.1-4.26,10.1l10.83,8.9,19.73,1Z" transform="translate(-0.2 -83.06)"/><polygon class="cls-13" points="95.91 537.63 83.01 665.45 64.67 649.41 61.39 500.24 74.95 479.17 105.36 510.92 95.91 537.63"/><path class="cls-14" d="M135.42,553.84s10.82,58.63,15.34,87.81-7.67,119.18-7.67,119.18H106.38V664.25s-.27-9.86-12.26-37.39-21-53.43-21-53.43-3.7,24.25,4.11,39.45.82,42.33.82,42.33-1.64,11.1,3.29,31.23S80.08,721,80.08,721s-2.88,10.69,3.29,19.73L83,760.83H46.38s-3.29-65.76,0-100.69S48,588.64,48,588.64s2.2-44.93,4.8-50,43.29,0,43.29,0l30.41,6Z" transform="translate(-0.2 -83.06)"/><path class="cls-12" d="M142,507.1l-1.28,21.4s0,10.14-6.57,11c0,0,1.92,5.2,0,9s-63.29,5.75-81.37-9.86c0,0-3.19-2.22,2.1-10.56s-.46-9.72-.46-9.72S44.82,514.91,34.3,494,41,447.68,41,447.68l15.34-18.1,26.85,23.58,47.67,7.94Z" transform="translate(-0.2 -83.06)"/><path class="cls-15" d="M196.93,432.34s-1.78,1.5,0,4-3.56,27.94-4.52,32.19-8.36,25.62-15.48,33.56-24.66,19.18-42.74,0c0,0-7.4-8.22-13.15-28.63s-9.73,3.7-8.91,10.55,2.2,19.86,6,29.31,2.19,27.68-14.11,19.59-14.93-17.53-17-9.31.13,11.15-12.47,11.33-22.33-3.93-24.11-18-2.6-56,1.51-77c0,0-9.45,21-7.13,30.14s-4.65,15.61-4.65,15.61-4.25,7-2.06,14.25c0,0-13.15-16.3-9-31.78s9-33,27-57.67S81.45,392.06,96.52,394s43.15,7,55.34,34.66,9,37.53,9,37.53,8.49-25.89,18.77-37.67c0,0,1.09-3,4-3C183.64,425.49,192.13,426.58,196.93,432.34Z" transform="translate(-0.2 -83.06)"/><path class="cls-16" d="M196.93,432.34s-.41,2.19-2.88,1-10-5.76-14.38-4.8c0,0-.14-2.88,4-3S196.93,432.34,196.93,432.34Z" transform="translate(-0.2 -83.06)"/><path class="cls-17" d="M135.42,548v5.89S86,565.35,52.82,538.64l19.45,4.65Z" transform="translate(-0.2 -83.06)"/><path class="cls-18" d="M119.53,556.31l18.9,96s1.65,11.5,0,29.58-5.34,78.91-5.34,78.91" transform="translate(-0.2 -83.06)"/><path class="cls-18" d="M126.7,556.31l18.9,96s1.65,11.5,0,29.58-5.34,78.91-5.34,78.91" transform="translate(-0.2 -83.06)"/><path class="cls-19" d="M118.12,383.84s-10.6-7.67-11.51-13.51c0,0-1.51,10.9,9.2,23Z" transform="translate(-0.2 -83.06)"/><path class="cls-20" d="M99.12,362.29s-3.47,8.77-12.05,0,2-22.65,2-22.65,44.3-11.5,45.07-5.48.37,6.77-4.26,7.68-8,2.8-15.5,1.46-10.88,6-10.88,6S87.25,342.2,99.12,362.29Z" transform="translate(-0.2 -83.06)"/><path class="cls-21" d="M133.82,335.44s-20.29,3.84-30.32,7.67-20.27,13.34-22.28,7.49-4-22.1,11.51-31.23,25.75-8.59,36.16,5.3a42.17,42.17,0,0,0,3.65,2.55C135.1,328.87,133.82,335.44,133.82,335.44Z" transform="translate(-0.2 -83.06)"/><path class="cls-22" d="M129.88,325.41s-34.75,4.2-50,16.43l.3-4.23S112.41,321,129.88,325.41Z" transform="translate(-0.2 -83.06)"/><path class="cls-23" d="M1342.39,135.63c511.26,0,570.43-40.79,576.86-52.57H.2C4.25,129.87,72.32,134.34,360,133.13c0,0,168.14-11.88,4.42,87.86S199,386.09,199,386.09s59-71.82,203.79-126.34c68.14-25.66,154.48-49.4,258.77-69.1C837.65,157.38,1065,135.63,1342.39,135.63Z" transform="translate(-0.2 -83.06)"/></svg>