<svg id="Layer_2" data-name="Layer 2" xmlns="http://www.w3.org/2000/svg" viewBox="0 0 536.99 298.04"><defs><style>.cls-1{fill:#33b9e4;}</style></defs><title>wind</title><path class="cls-1" d="M1104.2,636.88c-16,.48-29.28-4.41-38.35-17.81-4.87-7.19-6.12-15.53-5.67-24.11A33.65,33.65,0,0,1,1073,569.67c4-3.26,8.33-5.79,13.86-5.65,6.61.17,13.17-.49,19.45,2.86,7.07,3.78,12.42,8.94,14.37,16.67a8.53,8.53,0,0,1-5,9.56c-3.64,1.63-8.15,2.13-11.76-.91-1.49-1.26-2.49-3.08-3.78-4.6-3.39-4-7.6-4-12.27-2.79-3.78.94-5.4,3.52-6.11,6.88-1.43,6.78-2.35,13.6,3.36,19.07a18.33,18.33,0,0,0,10.53,5.16c14,1.57,27-1,36.33-12.49,6.75-8.29,10.41-18,7.94-29-1.45-6.42-2.93-12.79-7.56-18.06-5.87-6.7-12.91-11.17-21.06-14.7-12.65-5.48-25.78-7.09-39.23-6.62a98.15,98.15,0,0,0-31.43,6.24c-16.44,6.18-31.53,14.82-46.94,23-12.33,6.54-24.32,13.73-36.83,19.9-10.3,5.07-20.41,10.52-30.92,15.24-8.2,3.68-16.4,7.48-24.77,10.64-7.16,2.7-14.6,4.91-22,7.12-16.08,4.81-32.41,6.18-49,5.77a85.85,85.85,0,0,1-47.35-15.08c-6.06-4.14-7.51-9.27-4.22-13.84,4-5.47,10.35-6.46,16-2.67,10.28,6.85,21.69,9.9,34,10.94,10.34.88,20.54-.21,30.66-1.38,8.09-.94,16-3.63,23.88-6.07a198.05,198.05,0,0,0,21.95-8.06c10.8-4.8,21.47-10,32-15.41,15.23-7.89,30.25-16.2,45.39-24.26,11.92-6.33,23.7-13,35.93-18.68A177.53,177.53,0,0,1,1048,517.66a91,91,0,0,1,24.51-3.06c9.62.16,19.6-1,29.06,2.68,3.81,1.49,8,2,11.9,3.35,17.52,6,32.4,15.25,40.78,32.3a60.3,60.3,0,0,1,5.84,36c-2.3,16-10.16,28.2-23,37.14C1127.25,632.93,1116.38,637.62,1104.2,636.88Z" transform="translate(-776.93 -338.91)"/><path class="cls-1" d="M1243.58,524.67c-15.67.39-29.48-2.44-43.37-4.88a288.23,288.23,0,0,1-30.82-7.17c-8.32-2.42-16.76-4.46-25-7.29-9-3.09-18.62-4.2-27.81-6.75a246.38,246.38,0,0,0-26.71-5.44,153.83,153.83,0,0,0-54,.72,159.46,159.46,0,0,0-58.68,23.59c-5.58,3.69-10.43,8.47-16.94,11-4.11,1.63-6.46-.45-8.86-2.13-2.9-2-4.8-5.51-3.8-9.16a14.71,14.71,0,0,1,5.13-7.71,182.16,182.16,0,0,1,48.86-27.61,172.86,172.86,0,0,1,25.12-7.08c14.06-3,28.18-5,42.4-4.23a288.83,288.83,0,0,1,33.48,3.9c11.07,2,21.78,5.27,32.88,7.05,7.57,1.21,14.85,4.19,22.29,6.31,5.5,1.57,11,3,16.55,4.53s11.17,2.76,16.62,4.54,11,2.56,16.44,3.45c16.5,2.69,33.17,5.72,49.94,2.89,12.65-2.14,24.82-6,31.64-18.33,7.1-12.84,6.86-30.95-9-38.68-10-4.86-23.85-3.28-30.71,7.08-2.82,4.24-2.33,9.39-.75,14,1.22,3.54,6.85,3.74,10.3.83,2.1-1.77,3.38-4.58,6.66-4.86,4.41-.38,8.2.32,11,4.26,3.24,4.55,1.76,8.84-.77,12.77-7.72,12-27.78,13.88-38.81,4.92-17-13.8-11.3-41.28,3.41-52.59,11.25-8.66,24-10.77,37.51-9,15.41,2,29.62,15.9,33.88,30.69,5,17.34,1.5,32.78-8.74,47-6,8.27-14.5,13.76-23.83,17.28C1267.29,523,1255,525.93,1243.58,524.67Z" transform="translate(-776.93 -338.91)"/><path class="cls-1" d="M1138.19,461.84a244,244,0,0,1-34.86-5.13c-10-2.14-20-4.36-29.86-6.89-8.91-2.28-17.88-4.24-26.86-6.19-19.06-4.14-38-6.67-57.61-2.73-15.48,3.11-30.3,7.59-44.19,15a141.8,141.8,0,0,0-24.36,15.94c-3.46,2.87-7.5,4.61-11.91,1.75-3.88-2.51-6.32-5.79-5.41-10.81.58-3.24,2.71-5.34,5.07-7.16,9.21-7.11,18.64-13.93,29-19.17A176.38,176.38,0,0,1,964,425.75c13.09-4.11,26.5-5.33,39.84-7.32,9.63-1.43,19.16.88,28.72,1.95a171.12,171.12,0,0,1,20.94,3.7c6,1.45,12.15,2.43,18.13,4.36,4.61,1.49,9.59,2.2,14.38,3.53,7.3,2,14.75,3.58,22.2,5,16.14,3.14,32.36,6.09,48.84,3,9.88-1.83,19.43-4.47,27.9-10.59a43.63,43.63,0,0,0,13-15.33c4.84-9,5.3-18.69,3.25-28.5-2-9.64-8.09-16.36-16.16-21.63-4.26-2.78-9.11-3.92-13.83-4.84-10.57-2.08-25,6.88-29.57,16.93-4.09,8.94-4.24,17,3,24.24,4.54,4.56,10.53,4.9,15.7,1,6.83-5.13,13-4.55,17.06,1.67,2.44,3.77,2.2,7.2-.78,10.84-14,17.12-42.31,12.2-52.74-6.36-10.35-18.41-6-36.09,6.61-51.34a46.44,46.44,0,0,1,24-15.25c12.4-3.28,25-2.62,37.27,3.42,15.33,7.57,24.19,20.29,29.6,35.52,2.33,6.54,2.06,14.06,1.4,21.26-1.4,15.32-8.13,28.23-18.73,38.88a57.89,57.89,0,0,1-20.15,13.32A120.52,120.52,0,0,1,1138.19,461.84Z" transform="translate(-776.93 -338.91)"/><path class="cls-1" d="M989.42,452.11c5.51,0,10.44,3.73,11.34,8.1.93,4.54-.8,8.13-5,10.33-4.81,2.51-10,4-15.13,5.57a139.59,139.59,0,0,0-16.78,6.63c-9.55,4.37-19.27,8.49-28.33,13.74-11,6.34-22,12.62-32.09,20.39-2.58,2-5.63,3.35-8.33,5.21-3.64,2.5-6.9,2.23-10.5-.28s-4.93-5.92-4.49-10.29c.35-3.48,2.94-5.18,5.21-6.95,12.51-9.79,26.06-18.07,39.92-25.71,11.62-6.42,23.86-11.8,36-17.12,8-3.48,16.31-6.09,24.52-9A15.33,15.33,0,0,1,989.42,452.11Z" transform="translate(-776.93 -338.91)"/></svg>