<svg width="679" height="346" viewBox="0 0 679 346" fill="none" xmlns="http://www.w3.org/2000/svg">
<path d="M26.9602 5.03984C20.907 -1.01328 11.093 -1.01328 5.03984 5.03984C-1.01328 11.093 -1.01328 20.907 5.03984 26.9602L26.9602 5.03984ZM673.96 26.9602C680.013 20.907 680.013 11.093 673.96 5.03984C667.907 -1.01328 658.093 -1.01328 652.04 5.03984L673.96 26.9602ZM5.03984 26.9602L312.983 334.904L334.904 312.983L26.9602 5.03984L5.03984 26.9602ZM652.04 5.03984L344.096 312.983L366.017 334.904L673.96 26.9602L652.04 5.03984ZM312.983 334.904C327.628 349.548 351.372 349.548 366.017 334.904L344.096 312.983C341.558 315.522 337.442 315.522 334.904 312.983L312.983 334.904Z" fill="black"/>
</svg>
