<svg xmlns="http://www.w3.org/2000/svg" xmlns:xlink="http://www.w3.org/1999/xlink" viewBox="0 0 480 360"><defs><style>.cls-1{fill:url(#radial-gradient);}.cls-2{fill:#fee7bd;}.cls-3{fill:url(#linear-gradient);}.cls-4{fill:url(#linear-gradient-2);}.cls-5{fill:url(#linear-gradient-3);}.cls-6,.cls-7,.cls-8{opacity:0.33;}.cls-6{fill:url(#linear-gradient-4);}.cls-7{fill:url(#linear-gradient-5);}.cls-8{fill:url(#linear-gradient-6);}</style><radialGradient id="radial-gradient" cx="301.91" cy="145.61" r="128.97" gradientUnits="userSpaceOnUse"><stop offset="0" stop-color="#fee7bd"/><stop offset="0.31" stop-color="#fccb8c"/><stop offset="0.61" stop-color="#fab465"/><stop offset="0.85" stop-color="#f8a64e"/><stop offset="0.99" stop-color="#f8a145"/></radialGradient><linearGradient id="linear-gradient" x1="104.61" y1="188.96" x2="104.61" y2="294.47" gradientUnits="userSpaceOnUse"><stop offset="0" stop-color="#f9c052"/><stop offset="0.16" stop-color="#f9b14a"/><stop offset="0.43" stop-color="#f89e3f"/><stop offset="0.71" stop-color="#f89338"/><stop offset="1" stop-color="#f88f36"/></linearGradient><linearGradient id="linear-gradient-2" x1="314.8" y1="106.01" x2="314.8" y2="293.91" gradientUnits="userSpaceOnUse"><stop offset="0" stop-color="#fadb63"/><stop offset="0.26" stop-color="#f9cd5b"/><stop offset="0.75" stop-color="#f8a845"/><stop offset="1" stop-color="#f79238"/></linearGradient><linearGradient id="linear-gradient-3" x1="199.64" y1="236.76" x2="199.64" y2="295.12" gradientUnits="userSpaceOnUse"><stop offset="0" stop-color="#e78833"/><stop offset="0.46" stop-color="#e38530"/><stop offset="0.9" stop-color="#d87c28"/><stop offset="1" stop-color="#d47926"/></linearGradient><linearGradient id="linear-gradient-4" x1="824.61" y1="381.74" x2="824.61" y2="437.89" gradientTransform="matrix(1, 0, 0, -1, -720, 733.45)" xlink:href="#linear-gradient"/><linearGradient id="linear-gradient-5" x1="1034.95" y1="436.94" x2="1034.53" y2="349.63" gradientTransform="matrix(1, 0, 0, -1, -720, 733.45)" gradientUnits="userSpaceOnUse"><stop offset="0" stop-color="#f79238"/><stop offset="1" stop-color="#fadb63"/></linearGradient><linearGradient id="linear-gradient-6" x1="919.64" y1="379.85" x2="919.64" y2="438.2" gradientTransform="matrix(1, 0, 0, -1, -720, 733.45)" xlink:href="#linear-gradient-3"/></defs><title>loginBg</title><g id="Layer_5" data-name="Layer 5"><rect class="cls-1" width="480" height="360"/></g><g id="Layer_4" data-name="Layer 4"><circle class="cls-2" cx="301.77" cy="143.3" r="38"/></g><g id="Layer_2" data-name="Layer 2"><polygon class="cls-3" points="0 271.21 55.44 210.98 82.65 244 121.48 173.38 176.81 244.92 209.22 251.64 209.22 295.19 0 295.19 0 271.21"/><polygon class="cls-4" points="480 295.19 480 195.21 469.25 178.29 435.31 159.44 384.41 78.27 322.04 181.91 306.9 195.21 277.1 156.69 218.85 245.2 164.28 263.08 149.6 295.19 480 295.19"/></g><g id="Layer_3" data-name="Layer 3"><polygon class="cls-5" points="197.81 295.12 202.17 295.12 202.17 274.25 209.04 274.25 206.18 262.79 209.04 262.79 204.23 254.99 208.47 254.99 199.3 236.76 190.24 254.88 195.06 254.88 190.24 262.9 193.34 262.9 190.24 273.8 198.15 273.8 197.81 295.12"/><polygon class="cls-6" points="165.56 360 176.81 345.45 209.22 338.73 209.22 295.19 0 295.19 0 319.16 37.59 360 71.42 360 82.65 346.37 90.14 360 165.56 360"/><polygon class="cls-7" points="480 360 480 295.19 149.6 295.19 164.28 327.29 218.85 345.17 228.61 360 480 360"/><polygon class="cls-8" points="197.81 295.25 202.17 295.25 202.17 316.12 209.04 316.12 206.18 327.58 209.04 327.58 204.23 335.38 208.47 335.38 199.3 353.61 190.24 335.49 195.06 335.49 190.24 327.46 193.34 327.46 190.24 316.57 198.15 316.57 197.81 295.25"/></g></svg>