<svg id="Layer_3" data-name="Layer 3" xmlns="http://www.w3.org/2000/svg" viewBox="0 0 352.71 455.85"><defs><style>.cls-1{fill:#303030;}</style></defs><title>pass</title><path class="cls-1" d="M1361.22,404.2s-10.09-105.93,69.25-105.93S1502,386.32,1502,404.2h54.12s17-156.84-125.66-156.84-122.9,156.84-122.9,156.84Z" transform="translate(-1254.78 -247.36)"/><path class="cls-1" d="M1448.75,577.39l.06,0Z" transform="translate(-1254.78 -247.36)"/><path class="cls-1" d="M1554.49,421.17H1307.78a53.16,53.16,0,0,0-53,53v176a53.16,53.16,0,0,0,53,53h246.71a53.16,53.16,0,0,0,53-53v-176A53.16,53.16,0,0,0,1554.49,421.17ZM1448.82,577.35v44.23s-3.21,12.84-17.12,12.84-17.23-13.3-17.23-13.3V577.91a35.89,35.89,0,1,1,34.35-.56Z" transform="translate(-1254.78 -247.36)"/><path class="cls-1" d="M1414.47,577.91" transform="translate(-1254.78 -247.36)"/><polygon class="cls-1" points="159.69 330.55 159.69 330.55 159.69 330.55 159.69 330.55"/><polygon class="cls-1" points="194.03 329.99 194.03 329.99 194.03 329.99 194.03 329.99"/></svg>