<svg id="Layer_1" data-name="Layer 1" xmlns="http://www.w3.org/2000/svg" viewBox="0 0 669 296"><defs><style>.cls-1{fill:#64a2ff;}</style></defs><title>cloud</title><path class="cls-1" d="M580,482s-63,1-63,78,63,75,63,75H881s60-13,60-76-46-77-60-77V430s-18-91-91-91-104,29-110,55H652s-73-3-73,64Z" transform="translate(-517 -339)"/><path class="cls-1" d="M960,393s-60-12-61,20,0,51,0,51,46,12,55,56,6,73,6,73h172s54-1,54-70-51-57-51-57V411s-12-66-88-66S960,393,960,393Z" transform="translate(-517 -339)"/></svg>